<svg width="0" height="0" class="hidden">
  <symbol xmlns="http://www.w3.org/2000/svg" xmlns:xlink="http://www.w3.org/1999/xlink" viewBox="0 0 68.548 85" id="1">
    <defs>
      <clipPath id="clip-path">
        <rect id="Rectangle_581" width="68.548" height="85" fill="#e84e1b"></rect>
      </clipPath>
    </defs>
    <g id="Assistência_Técnica_Judicial" clip-path="url(#clip-path)">
      <path id="Path_654" d="M33.427,29.855A3.427,3.427,0,1,0,30,26.427a3.43,3.43,0,0,0,3.427,3.427m0-4.113a.685.685,0,1,1-.685.685.688.688,0,0,1,.685-.685" transform="translate(11.129 8.532)" fill="#e84e1b"></path>
      <path id="Path_655" d="M21.855,26.427a3.427,3.427,0,1,0-3.427,3.427,3.43,3.43,0,0,0,3.427-3.427m-3.427.685a.685.685,0,1,1,.685-.685.687.687,0,0,1-.685.685" transform="translate(5.565 8.532)" fill="#e84e1b"></path>
      <path id="Path_656" d="M57.572,59.246l-13.7-1.523V56.355a19.26,19.26,0,0,0,8.8-11.172,6.84,6.84,0,0,0,6.278-6.8V29.78a2.733,2.733,0,0,0,1.371-2.361V24.677A2.731,2.731,0,0,0,58.9,22.289,20.556,20.556,0,0,0,39.524,2.8,4.106,4.106,0,0,0,35.645,0H32.9a4.106,4.106,0,0,0-3.878,2.8A20.556,20.556,0,0,0,9.649,22.289a2.731,2.731,0,0,0-1.423,2.388v2.742A2.733,2.733,0,0,0,9.6,29.78v8.607a6.841,6.841,0,0,0,6.278,6.8,19.26,19.26,0,0,0,8.8,11.172v1.368l-13.7,1.523A12.326,12.326,0,0,0,0,71.51v9.377A4.118,4.118,0,0,0,4.113,85H64.435a4.118,4.118,0,0,0,4.113-4.113V71.51A12.326,12.326,0,0,0,57.572,59.246M50.726,74.032H43.871a5.489,5.489,0,0,0-5.484,5.484,5.427,5.427,0,0,0,.762,2.742H29.4a5.427,5.427,0,0,0,.762-2.742,5.489,5.489,0,0,0-5.484-5.484H17.823V65.806h32.9Zm-9.6-15.281c-.236.716-1.678,4.313-6.855,4.313s-6.615-3.582-6.855-4.313V57.664a18.894,18.894,0,0,0,13.71,0ZM27.014,63.065H22.319l.6-2.385,2.215-.247a9.015,9.015,0,0,0,1.882,2.632m14.521,0a9.015,9.015,0,0,0,1.882-2.632l2.215.247.6,2.385Zm11.933-32.9H56.21v2.778a6.791,6.791,0,0,0-2.742-1.268Zm-.189,12.145a19.291,19.291,0,0,0,.189-2.549V34.526a4.088,4.088,0,0,1-.189,7.78M56.14,21.935H53.466v2.742h4.114v2.742H10.968V24.677H50.726V21.935H44.365l4.15-13.278A17.814,17.814,0,0,1,56.14,21.935M15.081,30.161v1.509a6.791,6.791,0,0,0-2.742,1.268V30.161ZM32.9,19.194h2.742a4.118,4.118,0,0,0,4.113-4.113V5.554a17.652,17.652,0,0,1,6.323,1.7l-4.589,14.68H27.056L22.469,7.255a17.645,17.645,0,0,1,6.322-1.7v9.527A4.118,4.118,0,0,0,32.9,19.194M31.532,4.113A1.371,1.371,0,0,1,32.9,2.742h2.742a1.371,1.371,0,0,1,1.371,1.371V15.081a1.371,1.371,0,0,1-1.371,1.371H32.9a1.371,1.371,0,0,1-1.371-1.371Zm-11.5,4.545,4.149,13.278H12.409A17.811,17.811,0,0,1,20.035,8.658m-7.7,29.729a4.107,4.107,0,0,1,2.742-3.861v5.232a19.291,19.291,0,0,0,.189,2.549,4.106,4.106,0,0,1-2.931-3.92m5.484,1.371v-9.6h32.9v9.6a16.452,16.452,0,1,1-32.9,0M2.742,80.887V71.51a9.587,9.587,0,0,1,8.537-9.538L20.011,61,19.5,63.065H15.081V74.032H10.968V68.548H8.226v8.226h4.113v5.484H4.113a1.371,1.371,0,0,1-1.371-1.371m20.565,1.371H15.081V76.774h9.6a2.742,2.742,0,1,1,0,5.484Zm17.823-2.742a2.746,2.746,0,0,1,2.742-2.742h9.6v5.484h-9.6a2.746,2.746,0,0,1-2.742-2.742m24.677,1.371a1.371,1.371,0,0,1-1.371,1.371H56.21V76.774h4.113V68.548H57.581v5.484H53.468V63.065H49.053L48.538,61l8.732.971a9.587,9.587,0,0,1,8.537,9.538Z" fill="#e84e1b"></path>
      <path id="Path_657" d="M35.452,33H32.71a5.484,5.484,0,1,1-10.968,0H19a8.226,8.226,0,1,0,16.452,0" transform="translate(7.048 12.242)" fill="#e84e1b"></path>
    </g>
  </symbol>
</svg>