<svg width="85px" height="85px" class="hidden">
  <symbol id="1" xmlns="http://www.w3.org/2000/svg" xmlns:xlink="http://www.w3.org/1999/xlink" viewBox="0 0 85 85">
    <defs>
      <clipPath id="clip-path">
        <rect id="Rectangle_545" width="85" height="85" fill="#e84e1b"></rect>
      </clipPath>
    </defs>
    <g id="Avaliação_Estrutural-2" clip-path="url(#clip-path)">
      <path id="Path_629" d="M74.032,30.161H85v-3.31L77.368,19.22a5.411,5.411,0,0,0,.777-2.768,5.469,5.469,0,0,0-6.552-5.376L71.61,11,37.336,2.779l-3.859-.032L30.729,0H27L5.484,14.347V28.79H0V45.242H5.484V85H16.452V27.419h5.484V85H46.613V30.161H65.806V52.1h.042A6.847,6.847,0,0,0,63.2,56.21H54.839V75.4H85V56.21H76.636A6.847,6.847,0,0,0,73.99,52.1h.042Zm-3.545-2.742-2.742-2.742h11.2l2.742,2.742Zm-45.81-6.855,7.313,5.484-7.313,5.485ZM27.418,32.9l6.856-5.141L41.13,32.9ZM41.13,35.645l-6.856,5.141-6.856-5.141ZM24.677,37.016,31.99,42.5l-7.313,5.484Zm2.741,12.339,6.856-5.141,6.856,5.141ZM41.13,52.1l-6.856,5.141L27.418,52.1ZM24.677,53.468l7.313,5.484-7.313,5.484Zm9.6,7.2,6.856,5.141H27.418Zm-9.6,9.254,2.466,1.849,1.644-2.194-1.37-1.027H41.13L34.274,73.69l-3.462-2.6-1.645,2.194L31.99,75.4l-7.313,5.484Zm9.6,7.2,6.856,5.141H27.418ZM36.558,75.4l7.313-5.484V80.887Zm0-16.452,7.313-5.484V64.435Zm0-16.452,7.313-5.484V47.984Zm0-16.452L38.753,24.4,37.108,22.21l-2.834,2.126-6.856-5.142H41.13l-1.862,1.4,1.644,2.192,2.959-2.218V31.532Zm38.871-4.89.777.777H67.745L69.1,20.584a5.351,5.351,0,0,0,6.332.574M62.261,19.194H66.61l-2.174,2.174Zm-1.135,2.742H56.777l2.174-2.174Zm-7.658-.568-2.174-2.174h4.349Zm7.658,3.31-2.174,2.174-2.174-2.174ZM46.613,16.452v-.568l-3.356-3.356,18.637,3.924Zm0,2.742h.8l2.742,2.742H46.613Zm9.029,8.226H51.293l2.174-2.174Zm8.793-2.174,2.174,2.174H62.261ZM75.4,16.452a2.742,2.742,0,1,1-2.742-2.742A2.746,2.746,0,0,1,75.4,16.452M36.854,5.484l31.536,7.569a5.449,5.449,0,0,0-.938,1.767L42.782,9.626,40.331,9.6,36.213,5.484ZM43.3,16.452H20.384l9.14-13.71h.07ZM8.226,15.814,24.945,4.668,17.089,16.452H8.226Zm0,3.379H13.71V34.274H8.226V19.194ZM2.742,31.532H5.484v5.484H13.71V42.5H2.742Zm5.484,13.71H13.71V82.258H8.226Zm8.226-26.048h5.484v5.484H16.452Zm30.161,5.484h3.545l-2.742,2.742h-.8ZM57.581,64.435h2.742v8.226H57.581Zm13.71,8.226H68.548V64.435H71.29Zm-5.484,0H63.065V64.435h2.742Zm13.71,0V69.919H76.774v2.742H74.032V64.435h2.742v2.742h2.742V64.435h2.742v8.226Zm2.742-10.968H57.581V58.952H82.258Zm-16.2-5.484a4.089,4.089,0,0,1,7.721,0Zm3.861-5.484a6.848,6.848,0,0,0-1.371.138v-20.7H71.29v20.7a6.848,6.848,0,0,0-1.371-.138" fill="#e84e1b"></path>
    </g>
  </symbol>
</svg>