<svg width="0" height="0" class="hidden">
  <symbol id="1" xmlns="http://www.w3.org/2000/svg" xmlns:xlink="http://www.w3.org/1999/xlink" viewBox="0 0 85 85">
    <defs>
      <clipPath id="clip-path">
        <rect id="Rectangle_579" width="85" height="85" fill="#e84e1b"></rect>
      </clipPath>
    </defs>
    <g id="Group_175" clip-path="url(#clip-path)">
      <path id="Path_652" d="M79.516,17.414V8.226H58.952V5.484H53.468V0H31.532V5.484H26.048V8.226H5.484v9.188A9.592,9.592,0,0,0,0,26.048V67.177a9.609,9.609,0,0,0,9.6,9.6H24.677v5.484H19.194V85H65.806V82.258H60.323V76.774H75.4a9.609,9.609,0,0,0,9.6-9.6V26.048a9.592,9.592,0,0,0-5.484-8.634M45.242,8.226V5.484H34.274V2.742H50.726V5.484H47.984V8.226H56.21V52.1H50.726V38.387h2.742V35.645H31.532v2.742h2.742V52.1H28.79V8.226ZM41.129,52.1H37.016V38.387h4.113Zm2.742-13.71h4.113V52.1H43.871ZM8.226,10.968H26.048v8.226h-9.6v2.742h9.6V52.1H23.306v2.742H61.694V52.1H58.952V21.935h9.6V19.194h-9.6V10.968H76.774V57.581H8.226Zm-2.742,9.61V60.323H79.516V20.578a6.855,6.855,0,0,1,2.742,5.47V63.065H2.742V26.048a6.855,6.855,0,0,1,2.742-5.47m52.1,61.68H27.419V76.774H57.581ZM75.4,74.032H9.6a6.863,6.863,0,0,1-6.855-6.855V65.806H82.258v1.371A6.863,6.863,0,0,1,75.4,74.032" transform="translate(0)" fill="#e84e1b"></path>
      <path id="Path_653" d="M44.935,8H23V18.968H44.935Zm-2.742,8.226H25.742V10.742H42.194Z" transform="translate(8.532 2.968)" fill="#e84e1b"></path>
      <rect id="Rectangle_573" width="21.935" height="2.742" transform="translate(31.532 24.677)" fill="#e84e1b"></rect>
      <rect id="Rectangle_574" width="21.935" height="2.742" transform="translate(31.532 30.161)" fill="#e84e1b"></rect>
      <rect id="Rectangle_575" width="2.742" height="2.742" transform="translate(10.968 13.71)" fill="#e84e1b"></rect>
      <rect id="Rectangle_576" width="2.742" height="2.742" transform="translate(16.452 13.71)" fill="#e84e1b"></rect>
      <rect id="Rectangle_577" width="2.742" height="2.742" transform="translate(65.806 13.71)" fill="#e84e1b"></rect>
      <rect id="Rectangle_578" width="2.742" height="2.742" transform="translate(71.29 13.71)" fill="#e84e1b"></rect>
    </g>
  </symbol>
</svg>