<svg width="0" height="0" class="hidden">
  <symbol id="1" xmlns="http://www.w3.org/2000/svg" xmlns:xlink="http://www.w3.org/1999/xlink" viewBox="0 0 85 85">
    <defs>
      <clipPath id="clip-path">
        <rect id="Rectangle_551" width="85" height="85" fill="#e84e1b"></rect>
      </clipPath>
    </defs>
    <g id="Consultoria_Tecnica-2" clip-path="url(#clip-path)">
      <path id="Path_634" d="M79.516,16.452V14.817L74.444,2.137a3.4,3.4,0,0,0-6.306,0L63.065,14.817v1.634H24.6A12.336,12.336,0,0,0,0,17.823V72.661A12.352,12.352,0,0,0,12.339,85H85V16.452Zm-9.6,28.79H65.806V16.452h4.113Zm-4.113,2.742H76.774v5.484A1.371,1.371,0,0,1,75.4,54.839H67.177a1.371,1.371,0,0,1-1.371-1.371Zm10.968-2.742H72.661V16.452h4.113ZM70.684,3.153h0a.682.682,0,0,1,1.212,0L76.12,13.71H66.46ZM28.448,30.836a20.485,20.485,0,0,1,5.286,2.189l.916.539L38.816,29.4l5.818,5.817-4.166,4.168.539.916A20.485,20.485,0,0,1,43.2,45.585l.265,1.028h5.894v8.226H43.461L43.2,55.867a20.484,20.484,0,0,1-2.189,5.286l-.539.916,4.166,4.166-5.818,5.818L34.65,67.888l-.916.539a20.485,20.485,0,0,1-5.286,2.189l-1.028.265v5.894H23.958a12.251,12.251,0,0,0,.72-4.113V65.737a15.072,15.072,0,0,0,0-30.021V24.677h2.742v5.894ZM26.733,56.665a6.832,6.832,0,0,1-2.055.764V44.009a6.854,6.854,0,0,1,3.87,11.134l2.1,1.767a9.587,9.587,0,0,0-5.966-15.672V38.468a12.334,12.334,0,0,1,0,24.516V60.217a9.56,9.56,0,0,0,3.429-1.179ZM2.742,17.823a9.6,9.6,0,0,1,19.194,0v47.1a12.311,12.311,0,0,0-19.194,0Zm0,54.839a9.6,9.6,0,1,1,9.6,9.6,9.609,9.609,0,0,1-9.6-9.6m79.516,9.6H20.078a12.449,12.449,0,0,0,2.513-2.742h7.57V72.978A23.213,23.213,0,0,0,34.2,71.311l4.62,4.62,9.7-9.7-4.62-4.62a23.213,23.213,0,0,0,1.667-4.035H52.1V43.871H45.559a23.169,23.169,0,0,0-1.667-4.035l4.62-4.622-9.7-9.694-4.62,4.62a23.213,23.213,0,0,0-4.035-1.667V21.935H24.677V19.194H63.065V53.468a4.118,4.118,0,0,0,4.113,4.113H75.4a4.118,4.118,0,0,0,4.113-4.113V19.194h2.742Z" fill="#e84e1b"></path>
      <path id="Path_635" d="M38,63.194H65.419V44H38Zm2.742-16.452H62.677v13.71H40.742Z" transform="translate(14.097 16.323)" fill="#e84e1b"></path>
      <rect id="Rectangle_547" width="10.968" height="2.742" transform="translate(63.065 65.806)" fill="#e84e1b"></rect>
      <rect id="Rectangle_548" width="2.742" height="2.742" transform="translate(57.581 65.806)" fill="#e84e1b"></rect>
      <rect id="Rectangle_549" width="10.968" height="2.742" transform="translate(57.581 71.29)" fill="#e84e1b"></rect>
      <rect id="Rectangle_550" width="2.742" height="2.742" transform="translate(71.29 71.29)" fill="#e84e1b"></rect>
      <path id="Path_636" d="M10.855,48a6.855,6.855,0,1,0,0,13.71V58.968a4.113,4.113,0,1,1,4.113-4.113H17.71A6.863,6.863,0,0,0,10.855,48" transform="translate(1.484 17.806)" fill="#e84e1b"></path>
    </g>
  </symbol>
</svg>