<svg width="0" height="0" class="hidden">
  <symbol id="1" xmlns="http://www.w3.org/2000/svg" xmlns:xlink="http://www.w3.org/1999/xlink" viewBox="0 0 85 82.957">
    <defs>
      <clipPath id="clip-path">
        <rect id="Rectangle_543" width="85" height="82.957" fill="#e84e1b"></rect>
      </clipPath>
    </defs>
    <g id="Infiltrações_Vazamentos-2" transform="translate(0 0)" clip-path="url(#clip-path)">
      <path id="Path_626" d="M34.89,32.6a3.45,3.45,0,0,0-6.342,0l-3.131,7.3a6.856,6.856,0,0,0-.553,2.7v.245a6.855,6.855,0,0,0,13.71,0V42.6a6.834,6.834,0,0,0-.554-2.7Zm.942,10.247a4.113,4.113,0,0,1-8.226,0V42.6a4.119,4.119,0,0,1,.332-1.62l3.131-7.3a.709.709,0,0,1,1.3,0l3.129,7.3a4.108,4.108,0,0,1,.333,1.622Z" transform="translate(9.224 11.318)" fill="#e84e1b"></path>
      <path id="Path_627" d="M76.774,17.137V.165H57.581V7.54L42.5,0,0,21.25V33.918l2.742-1.371V75.568H24.5a2.025,2.025,0,0,0-.014.288V76.1a6.855,6.855,0,0,0,13.71,0v-.247a2.025,2.025,0,0,0-.014-.288h5.511a2.025,2.025,0,0,0-.014.288V76.1a6.855,6.855,0,0,0,13.71,0v-.247a2.024,2.024,0,0,0-.014-.288H82.258V32.547L85,33.918V21.25ZM60.323,2.906h13.71V5.648H60.323Zm0,5.484h13.71v7.376L60.323,8.911ZM35.453,76.1a4.113,4.113,0,0,1-8.226,0v-.247a2.025,2.025,0,0,1,.014-.288,4.118,4.118,0,0,1,.329-1.33l.6-1.412,2.523-5.9a.711.711,0,0,1,1.3,0l2.523,5.9.6,1.412a4.1,4.1,0,0,1,.315,1.33,2.025,2.025,0,0,1,.014.288Zm19.194-.247V76.1a4.113,4.113,0,0,1-8.226,0v-.247a2.025,2.025,0,0,1,.014-.288,4.118,4.118,0,0,1,.329-1.33l.6-1.412,2.523-5.9a.711.711,0,0,1,1.3,0l2.523,5.9.6,1.412a4.1,4.1,0,0,1,.315,1.33,2.025,2.025,0,0,1,.014.288m27.611-46.38-4.867-2.44L76.157,29.49l3.359,1.686v41.65H56.7l-2.989-6.965a3.45,3.45,0,0,0-6.348,0l-2.989,6.965H37.51l-2.989-6.965a3.45,3.45,0,0,0-6.348,0l-2.989,6.965H5.484V31.176L42.5,12.668,73.415,28.119l1.22-2.454L42.5,9.6,2.742,29.476V22.95L42.5,3.071,82.258,22.95Z" transform="translate(0 0)" fill="#e84e1b"></path>
    </g>
  </symbol>
</svg>