<svg width="0" height="0" class="hidden">
  <symbol id="1" xmlns="http://www.w3.org/2000/svg" xmlns:xlink="http://www.w3.org/1999/xlink" viewBox="0 0 84.161 85">
    <defs>
      <clipPath id="clip-path">
        <rect id="Rectangle_560" width="84.161" height="85" fill="#e84e1b"></rect>
      </clipPath>
    </defs>
    <g id="Inspecao_Predial-2" clip-path="url(#clip-path)">
      <path id="Path_642" d="M46.427,30.855A3.427,3.427,0,1,0,43,27.427a3.43,3.43,0,0,0,3.427,3.427m0-4.113a.685.685,0,1,1-.685.685.688.688,0,0,1,.685-.685" transform="translate(15.952 8.903)" fill="#e84e1b"></path>
      <path id="Path_643" d="M35.427,30.855A3.427,3.427,0,1,0,32,27.427a3.43,3.43,0,0,0,3.427,3.427m0-4.113a.685.685,0,1,1-.685.685.688.688,0,0,1,.685-.685" transform="translate(11.871 8.903)" fill="#e84e1b"></path>
      <path id="Path_644" d="M35,33a6.855,6.855,0,0,0,13.71,0H45.968a4.113,4.113,0,0,1-8.226,0Z" transform="translate(12.984 12.242)" fill="#e84e1b"></path>
      <path id="Path_645" d="M35.645,76.774H84.161l-4.52-13.559a9.589,9.589,0,0,0-2.867-4.262V29.78a2.733,2.733,0,0,0,1.371-2.361V24.677a2.735,2.735,0,0,0-1.42-2.387A20.606,20.606,0,0,0,58.952,2.946v-.2A2.746,2.746,0,0,0,56.21,0H53.468a2.745,2.745,0,0,0-2.742,2.742v.2A20.606,20.606,0,0,0,32.953,22.291a2.735,2.735,0,0,0-1.42,2.387v2.742A2.733,2.733,0,0,0,32.9,29.78v5.865H30.161V30.161h-9.6V24.677H17.823v5.484h-9.6v5.484H2.742V82.258H0V85H38.387V82.258H35.645ZM17.823,82.258H13.71V68.548h4.113Zm6.855,0H20.565V68.548h4.113Zm8.226,0H27.419V68.548h2.742V65.806H8.226v2.742h2.742v13.71H5.484V38.387H21.935V35.645H10.968V32.9H27.419v2.742H24.677v2.742H32.9Zm2.742-8.226V60.362a6.854,6.854,0,0,1,2.368-.872l6.226-1.038-1.977,4.942,2.782,2.782L43.672,70.29l3.744,3.743ZM46.511,55.294l-8.948,1.492a9.527,9.527,0,0,0-1.918.542V30.161h2.742V41.129a16.446,16.446,0,0,0,8.124,14.165M68.548,41.129a13.71,13.71,0,1,1-27.419,0V30.161H68.548Zm2.742,0V30.161h2.742V57.335a9.6,9.6,0,0,0-1.918-.55l-8.948-1.492A16.446,16.446,0,0,0,71.29,41.129M58.731,57.1l-.185.864a4.09,4.09,0,0,1-7.414,0l-.185-.864a15.893,15.893,0,0,0,7.784,0M51.293,74.032,46.81,69.548l1.371-4.113-2.7-2.7L47.4,57.925l.766-.127a6.751,6.751,0,0,0,.352,1.071l3.249,15.164Zm3.809,0h-.526L52.1,62.467a6.585,6.585,0,0,0,5.482,0Zm2.8,0,3.249-15.164a6.751,6.751,0,0,0,.352-1.071l.766.127L64.2,62.734l-2.7,2.7,1.371,4.113-4.482,4.484ZM77.04,64.083l3.315,9.949h-6.57L72.634,68.28l-2.688.537,1.043,5.215H62.261L66,70.29l-1.371-4.113,2.783-2.782-1.977-4.942,6.224,1.038a6.841,6.841,0,0,1,5.377,4.593M53.468,2.742H56.21v13.71H53.468l0-13.71ZM50.726,5.7V16.452a2.746,2.746,0,0,0,2.742,2.742H56.21a2.746,2.746,0,0,0,2.742-2.742V5.7a17.6,17.6,0,0,1,4.635,1.4L60.572,21.935H49.105L46.092,7.1a17.589,17.589,0,0,1,4.634-1.4m-7.147,2.81,2.727,13.422H35.712A17.866,17.866,0,0,1,43.579,8.514m-9.3,16.164H68.548V21.935H63.37L66.1,8.514a17.866,17.866,0,0,1,7.867,13.422H71.29v2.742H75.4v2.742H34.274Z" fill="#e84e1b"></path>
      <path id="Path_646" d="M6,40.968H27.935V30H6Zm2.742-8.226H25.194v5.484H8.742Z" transform="translate(2.226 11.129)" fill="#e84e1b"></path>
      <rect id="Rectangle_558" width="21.935" height="2.742" transform="translate(8.226 54.839)" fill="#e84e1b"></rect>
      <rect id="Rectangle_559" width="21.935" height="2.742" transform="translate(8.226 60.323)" fill="#e84e1b"></rect>
    </g>
  </symbol>
</svg>