<svg width="0" height="0" class="hidden">
  <symbol id="1" xmlns="http://www.w3.org/2000/svg" xmlns:xlink="http://www.w3.org/1999/xlink" viewBox="0 0 85 85">
    <defs>
      <clipPath id="clip-path">
        <rect id="Rectangle_557" width="85" height="85" fill="#e84e1b"></rect>
      </clipPath>
    </defs>
    <g id="Manutencao_Predial-2" clip-path="url(#clip-path)">
      <path id="Path_637" d="M18.484,18A5.489,5.489,0,0,0,13,23.484V38.565a5.484,5.484,0,0,0,10.968,0V23.484A5.489,5.489,0,0,0,18.484,18m2.742,20.565a2.742,2.742,0,0,1-5.484,0V23.484a2.742,2.742,0,1,1,5.484,0Z" transform="translate(4.823 6.677)" fill="#e84e1b"></path>
      <path id="Path_638" d="M18.113,60.226A4.113,4.113,0,1,0,14,56.113a4.118,4.118,0,0,0,4.113,4.113m0-5.484a1.371,1.371,0,1,1-1.371,1.371,1.371,1.371,0,0,1,1.371-1.371" transform="translate(5.194 19.29)" fill="#e84e1b"></path>
      <path id="Path_639" d="M70.487,16.452H37.016V13.71H15.081V10.968H37.016V6.855A6.863,6.863,0,0,0,30.161,0H9.408A9.408,9.408,0,0,0,4.113,17.185V22.78a12.014,12.014,0,0,0,0,18.1v4.361A5.489,5.489,0,0,0,9.6,50.726a5.427,5.427,0,0,0,2.742-.762V56.21h2.742V76.774a8.214,8.214,0,0,0,14.34,5.484H85V30.965Zm.8,4.68,9.029,9.029H71.29ZM12.339,45.242a2.742,2.742,0,1,1-5.484,0V42.688a11.938,11.938,0,0,0,5.167,1.183h.317Zm0-9.6a4.113,4.113,0,1,1,0-8.226Zm0-10.968a6.855,6.855,0,1,0,0,13.71v2.742h-.317a9.279,9.279,0,0,1-2.014-18.337l2.331-.518Zm0-19.194v14l-2.926.628A12.2,12.2,0,0,0,6.855,21V15.718L5.71,14.955a6.666,6.666,0,0,1,3.7-12.213H30.161a4.118,4.118,0,0,1,4.113,4.113V8.226H31.532V5.484H28.79V8.226H26.048V5.484H23.306V8.226H20.565V5.484H17.823V8.226H15.081V5.484ZM28.79,76.774a5.484,5.484,0,0,1-10.968,0V56.21H28.79ZM15.081,53.468V21.935h2.742V19.194H15.081V16.452H34.274v.8l-1.939,1.939H20.565v2.742H31.532V53.468ZM82.258,79.516H31.052a8.192,8.192,0,0,0,.48-2.742V56.21h2.742V21.132l1.939-1.939H68.548V32.9h13.71Z" fill="#e84e1b"></path>
      <path id="Path_640" d="M53.048,16H29.742v5.484H27V70.839H55.79V21.484H53.048ZM32.484,18.742H50.306v2.742H32.484ZM44.823,68.1H37.968V57.129h6.855Zm8.226,0H47.565V57.129h2.742V54.387H32.484v2.742h2.742V68.1H29.742V24.226H53.048Z" transform="translate(10.016 5.935)" fill="#e84e1b"></path>
      <path id="Path_641" d="M48.823,24H31v9.6H48.823Zm-2.742,6.855H33.742V26.742H46.081Z" transform="translate(11.5 8.903)" fill="#e84e1b"></path>
      <rect id="Rectangle_552" width="17.823" height="2.742" transform="translate(42.5 45.242)" fill="#e84e1b"></rect>
      <rect id="Rectangle_553" width="17.823" height="2.742" transform="translate(42.5 50.726)" fill="#e84e1b"></rect>
      <rect id="Rectangle_554" width="2.742" height="2.742" transform="translate(68.548 74.032)" fill="#e84e1b"></rect>
      <rect id="Rectangle_555" width="2.742" height="2.742" transform="translate(68.548 68.548)" fill="#e84e1b"></rect>
      <rect id="Rectangle_556" width="2.742" height="2.742" transform="translate(68.548 63.065)" fill="#e84e1b"></rect>
    </g>
  </symbol>
</svg>