<svg width="0" height="0" class="hidden">
  <symbol id="1" xmlns="http://www.w3.org/2000/svg" xmlns:xlink="http://www.w3.org/1999/xlink" viewBox="0 0 85 85">
    <defs>
      <clipPath id="clip-path">
        <rect id="Rectangle_544" width="85" height="85" fill="#e84e1b"></rect>
      </clipPath>
    </defs>
    <g id="Trincas" clip-path="url(#clip-path)">
      <path id="Path_628" d="M80.887,74.032H76.774V32.3a5.713,5.713,0,0,0,5.41-10.055L44.243,0H40.749l-14.7,8.821V9.6h-.355L12.339,17.015v.807h-.393L0,25.288v8.987H3.1l2.388-1.318V74.032H4.113A4.118,4.118,0,0,0,0,78.145v2.742A4.118,4.118,0,0,0,4.113,85H80.887A4.118,4.118,0,0,0,85,80.887V78.145a4.118,4.118,0,0,0-4.113-4.113m-37.016,0V13.342L54.75,19.617,53.37,27.89l5.492,5.492L56.237,50.457,53.5,64.167l2.687.537,2.29-11.45,6.457,5.381,1.755-2.109-7.631-6.359,2.73-17.743-5.476-5.476.978-5.869,16.748,9.661V74.032ZM8.226,32.9h32.9V49.355H20.565V52.1h2.742v5.484H15.081V52.1h2.742V49.355h-9.6Zm32.9-19.613V30.161H10.55Zm-9.6,47.032h9.6v5.484h-9.6Zm-10.968,0H28.79v5.484H20.565Zm13.71-2.742H26.048V52.1h8.226Zm6.855,0H37.016V52.1h4.113ZM8.226,52.1h4.113v5.484H8.226Zm0,8.226h9.6v5.484h-9.6Zm15.081,13.71H15.081V68.548h8.226Zm2.742-5.484h8.226v5.484H26.048Zm10.968,0h4.113v5.484H37.016ZM80.8,24.606a2.989,2.989,0,0,1,1.46,2.6,2.954,2.954,0,0,1-4.43,2.56L43.871,10.175V2.96ZM41.129,2.97v7.188L28.79,16.966V10.373ZM26.048,12.536v5.942L15.081,24.529v-5.9ZM2.742,31.336V26.809l9.6-6v5.232ZM8.226,68.548h4.113v5.484H8.226ZM82.258,80.887a1.371,1.371,0,0,1-1.371,1.371H4.113a1.371,1.371,0,0,1-1.371-1.371V78.145a1.371,1.371,0,0,1,1.371-1.371H80.887a1.371,1.371,0,0,1,1.371,1.371Z" fill="#e84e1b"></path>
    </g>
  </symbol>
</svg>