<svg width="0" height="0" class="hidden">
  <symbol id="1" xmlns="http://www.w3.org/2000/svg" xmlns:xlink="http://www.w3.org/1999/xlink" viewBox="0 0 85 85">
    <defs>
      <clipPath id="clip-path">
        <rect id="Rectangle_561" width="85" height="85" fill="#e84e1b"></rect>
      </clipPath>
    </defs>
    <g id="Vistoria_de_Entrega_de_Obra-2" clip-path="url(#clip-path)">
      <path id="Path_647" d="M27.427,26.855A3.427,3.427,0,1,0,24,23.427a3.43,3.43,0,0,0,3.427,3.427m0-4.113a.685.685,0,1,1-.685.685.687.687,0,0,1,.685-.685" transform="translate(8.903 7.419)" fill="#e84e1b"></path>
      <path id="Path_648" d="M19.855,23.427a3.427,3.427,0,1,0-3.427,3.427,3.43,3.43,0,0,0,3.427-3.427m-4.113,0a.685.685,0,1,1,.685.685.687.687,0,0,1-.685-.685" transform="translate(4.823 7.419)" fill="#e84e1b"></path>
      <path id="Path_649" d="M16,29a6.855,6.855,0,1,0,13.71,0H26.968a4.113,4.113,0,1,1-8.226,0Z" transform="translate(5.935 10.758)" fill="#e84e1b"></path>
      <path id="Path_650" d="M45.984,49.355l-6.995-.824a16.511,16.511,0,0,0,5.31-7.444,6.845,6.845,0,0,0,6.427-6.812V25.667A2.733,2.733,0,0,0,52.1,23.306V20.565a2.742,2.742,0,0,0-1.764-2.554A20.64,20.64,0,0,0,32.611,1.537,2.736,2.736,0,0,0,30.161,0H27.419a2.736,2.736,0,0,0-2.45,1.537A20.64,20.64,0,0,0,7.248,18.01a2.742,2.742,0,0,0-1.764,2.554v2.742a2.733,2.733,0,0,0,1.371,2.361v8.607a6.845,6.845,0,0,0,6.427,6.812,16.5,16.5,0,0,0,5.31,7.443l-7.7.908A12.344,12.344,0,0,0,0,61.692V80.887A4.118,4.118,0,0,0,4.113,85H85V49.355Zm36.274,8.226H75.4V52.1h6.855ZM57.581,68.548H72.661v5.484H57.581ZM46.613,63.065V82.258H28.028a5.427,5.427,0,0,0,.762-2.742,5.483,5.483,0,0,0-3.463-5.088L26.8,71.481a6.2,6.2,0,0,0,7.237-3.772l2.868-7.17,2.115-1.057a5.61,5.61,0,0,0,2.3-7.9l-.01-.016,5.052.6a9.6,9.6,0,0,1,8.474,9.531v6.856H49.355V63.065Zm-28-10.073,1.1-1.833,2.243-.265a6.849,6.849,0,0,0,5.273,6.489L25.747,58.8a2.818,2.818,0,0,1-2.473-.029L19.786,57.03a2.867,2.867,0,0,1-1.176-4.037M37.872,51.16l1.1,1.832a2.861,2.861,0,0,1-.642,3.688,3.875,3.875,0,0,0-2.874-4.417,6.811,6.811,0,0,0,.177-1.367ZM24.677,65.379v-.243a3.555,3.555,0,0,1,1.086-2.55l7.668-7.359a1.216,1.216,0,0,1,.472-.282l.119-.04a1.232,1.232,0,0,1,1.623,1.168,1.185,1.185,0,0,1-.089.458L31.493,66.692a3.534,3.534,0,0,1-6.815-1.313M32.43,52.622a3.965,3.965,0,0,0-.9.628L30.122,54.6a4.064,4.064,0,0,1-5.352-3.023,15.873,15.873,0,0,0,8.035,0,4.089,4.089,0,0,1-.374,1.041m27.892,4.959v2.742h2.742v5.484H57.581V61.692a12.323,12.323,0,0,0-4.591-9.6H72.661v5.484Zm5.484,2.742H82.258v5.484H65.806ZM47.984,26.048v2.778a6.791,6.791,0,0,0-2.742-1.268V26.048ZM45.023,38.2a16.4,16.4,0,0,0,.219-2.558V30.414a4.088,4.088,0,0,1-.219,7.79M47.5,17.823H45.242v2.742h4.113v2.742H8.226V20.565H42.5V17.823H36.13L39.522,6.8A17.9,17.9,0,0,1,47.5,17.823M12.339,26.048v1.509A6.791,6.791,0,0,0,9.6,28.826V26.048ZM32.9,12.339V4.327a17.592,17.592,0,0,1,4.144,1.187L33.261,17.823H24.32L20.533,5.514a17.592,17.592,0,0,1,4.144-1.187v8.012a2.746,2.746,0,0,0,2.742,2.742h2.742A2.746,2.746,0,0,0,32.9,12.339m-5.484-9.6h2.742v9.6H27.419l0-9.6ZM18.06,6.8l3.39,11.021H10.077A17.9,17.9,0,0,1,18.06,6.8M9.6,34.274a4.107,4.107,0,0,1,2.742-3.861v5.232a16.37,16.37,0,0,0,.219,2.557A4.1,4.1,0,0,1,9.6,34.274m5.484,1.371v-9.6H42.5v9.6a13.71,13.71,0,1,1-27.419,0M11.216,52.161l5.053-.6-.011.016a5.61,5.61,0,0,0,2.3,7.9l3.488,1.743a5.7,5.7,0,0,0,.991.362,6.315,6.315,0,0,0-1.1,3.549v.243a6.242,6.242,0,0,0,2.4,4.9l-1.877,3.755H10.968V63.065H8.226v4.113H2.742V61.692a9.6,9.6,0,0,1,8.474-9.531m10.72,30.1H4.113a1.371,1.371,0,0,1-1.371-1.371V69.919H8.226v6.855H23.306a2.742,2.742,0,0,1,0,5.484ZM49.355,71.29h5.484V82.258H49.355Zm8.226,5.484h5.484v5.484H57.581Zm8.226,5.484V76.774h13.71V74.032H75.4V68.548h6.855v13.71Z" fill="#e84e1b"></path>
    </g>
  </symbol>
</svg>