<svg xmlns="http://www.w3.org/2000/svg" width="47.672" height="47.682" viewBox="0 0 47.672 47.682">
  <g id="Group_99" data-name="Group 99" transform="translate(-1513.66 -912.057)">
    <path id="Path_164" data-name="Path 164" d="M611.422,1103.57c-.572.577-2.515,3.24-2.515,3.24s-2.34.465-6.715-3.279-4.277-6.128-4.277-6.128,2.33-2.33,2.812-2.985-3.058-6.267-3.766-6.424-4.46.45-5.416,3.731.791,9.547,7.6,15.371,13.266,6.582,16.36,5.13h0c3.094-1.451,3.113-5.252,2.849-5.927s-6.356-3.306-6.928-2.729" transform="translate(932.874 -164.254)" fill="#fff"/>
    <path id="Path_165" data-name="Path 165" d="M606.616,1071.313a23.831,23.831,0,1,0-43.394,18l-2.683,10.351,10.771-2.513a23.728,23.728,0,0,0,12.029,3.292,24.07,24.07,0,0,0,5.334-.6,23.819,23.819,0,0,0,17.943-28.53m-39.689,17.378-.435-.642a20.406,20.406,0,1,1,6.024,5.823l-.606-.381-6.629,1.547Z" transform="translate(954.111 -140.706)" fill="#fff"/>
  </g>
</svg>
