<svg xmlns="http://www.w3.org/2000/svg" width="39.801" height="39.801" viewBox="0 0 39.801 39.801">
  <path id="phone-solid" d="M12.478,1.841A3.017,3.017,0,0,0,8.891.085L2.232,1.9A3.036,3.036,0,0,0,0,4.822a33.9,33.9,0,0,0,33.9,33.9,3.036,3.036,0,0,0,2.921-2.232l1.816-6.659a3.017,3.017,0,0,0-1.756-3.587l-7.264-3.027a3.017,3.017,0,0,0-3.5.878l-3.057,3.73A25.574,25.574,0,0,1,10.9,15.665l3.73-3.049a3.02,3.02,0,0,0,.878-3.5L12.478,1.848Z" transform="translate(0.5 0.579)" fill="#fff" stroke="#fff" stroke-width="1"/>
</svg>
