<svg id="Group_111" data-name="Group 111" xmlns="http://www.w3.org/2000/svg" xmlns:xlink="http://www.w3.org/1999/xlink" width="40" height="40" viewBox="0 0 40 40">
  <defs>
    <clipPath id="clip-path">
      <rect id="Rectangle_87" data-name="Rectangle 87" width="40" height="40" fill="#fcfdfb"/>
    </clipPath>
  </defs>
  <g id="Group_110" data-name="Group 110" clip-path="url(#clip-path)">
    <path id="Path_174" data-name="Path 174" d="M40,20A20,20,0,1,0,20,40,20,20,0,0,0,40,20M14.331,29.9H9.873V15.911h4.457ZM12.1,14.08a2.508,2.508,0,1,1,2.508-2.508A2.508,2.508,0,0,1,12.1,14.08M26.031,29.9V22.25c0-.389.061-2.965-2.126-2.965a2.417,2.417,0,0,0-2.006.983,3.056,3.056,0,0,0-.611,1.859V29.9h-4.37V15.911h4.157v1.963a5.049,5.049,0,0,1,9.33,2.6V29.9Z" transform="translate(0 -0.001)" fill="#fcfdfb"/>
  </g>
</svg>
