<svg id="Group_109" data-name="Group 109" xmlns="http://www.w3.org/2000/svg" xmlns:xlink="http://www.w3.org/1999/xlink" width="40" height="40" viewBox="0 0 40 40">
  <defs>
    <clipPath id="clip-path">
      <rect id="Rectangle_86" data-name="Rectangle 86" width="40" height="40" fill="#fcfdfb"/>
    </clipPath>
  </defs>
  <g id="Group_108" data-name="Group 108" clip-path="url(#clip-path)">
    <path id="Path_172" data-name="Path 172" d="M85.945,73.181a9.239,9.239,0,0,0-12.568,13l.2.291-.745,2.873,3-.7.274.173a9.239,9.239,0,0,0,9.84-15.639m0,13.287h0c-1.4.657-4.325.314-7.406-2.323s-3.872-5.473-3.439-6.959A2.534,2.534,0,0,1,77.557,75.5c.32.071,1.923,2.612,1.7,2.908s-1.273,1.351-1.273,1.351-.044,1.079,1.936,2.774,3.04,1.484,3.04,1.484.879-1.206,1.138-1.467,3.017.93,3.137,1.235a2.534,2.534,0,0,1-1.29,2.683" transform="translate(-61.024 -61.003)" fill="#fcfdfb"/>
    <path id="Path_173" data-name="Path 173" d="M20,0A20,20,0,1,0,40,20,20,20,0,0,0,20,0m9.135,25.745A10.721,10.721,0,0,1,22.4,30.521a10.9,10.9,0,0,1-2.415.273,10.744,10.744,0,0,1-5.446-1.49L9.659,30.441l1.215-4.686a10.788,10.788,0,1,1,18.261-.009" transform="translate(0 -0.001)" fill="#fcfdfb"/>
  </g>
</svg>
