<svg id="Group_107" data-name="Group 107" xmlns="http://www.w3.org/2000/svg" xmlns:xlink="http://www.w3.org/1999/xlink" width="40" height="40" viewBox="0 0 40 40">
  <defs>
    <clipPath id="clip-path">
      <rect id="Rectangle_85" data-name="Rectangle 85" width="40" height="40" fill="#fcfdfb"/>
    </clipPath>
  </defs>
  <g id="Group_106" data-name="Group 106" clip-path="url(#clip-path)">
    <path id="Path_169" data-name="Path 169" d="M74.222,89.365H85.651a3.719,3.719,0,0,0,3.714-3.714V74.222a3.719,3.719,0,0,0-3.714-3.714H74.222a3.719,3.719,0,0,0-3.714,3.714V85.651a3.718,3.718,0,0,0,3.714,3.714M86.013,72.4a1.429,1.429,0,1,1-1.429,1.429A1.429,1.429,0,0,1,86.013,72.4m-6.076,1.827a5.714,5.714,0,1,1-5.714,5.714,5.714,5.714,0,0,1,5.714-5.714" transform="translate(-59.937 -59.937)" fill="#fcfdfb"/>
    <path id="Path_170" data-name="Path 170" d="M112.335,116.049a3.714,3.714,0,1,0-3.714-3.714,3.714,3.714,0,0,0,3.714,3.714" transform="translate(-92.335 -92.334)" fill="#fcfdfb"/>
    <path id="Path_171" data-name="Path 171" d="M20,40A20,20,0,1,0,0,20,20,20,0,0,0,20,40M8.571,14.286a5.714,5.714,0,0,1,5.714-5.714H25.714a5.714,5.714,0,0,1,5.714,5.714V25.714a5.714,5.714,0,0,1-5.714,5.714H14.286a5.714,5.714,0,0,1-5.714-5.714Z" fill="#fcfdfb"/>
  </g>
</svg>
