<svg xmlns="http://www.w3.org/2000/svg" xmlns:xlink="http://www.w3.org/1999/xlink" width="351.667" height="52.666" viewBox="0 0 351.667 52.666">
  <defs>
    <clipPath id="clip-path">
      <rect id="Rectangle_95" data-name="Rectangle 95" width="351.667" height="52.666" fill="none"/>
    </clipPath>
  </defs>
  <g id="Group_127" data-name="Group 127" transform="translate(0 0)">
    <rect id="Rectangle_90" data-name="Rectangle 90" width="16.508" height="51.854" transform="translate(0 0.812)" fill="#fcfdfb"/>
    <rect id="Rectangle_91" data-name="Rectangle 91" width="16.508" height="51.854" transform="translate(31.689 0.812)" fill="#fcfdfb"/>
    <rect id="Rectangle_92" data-name="Rectangle 92" width="31.258" height="18.677" transform="translate(63.093 0.812)" fill="#fcfdfb"/>
    <rect id="Rectangle_93" data-name="Rectangle 93" width="31.257" height="20.366" transform="translate(63.093 32.3)" fill="#fcfdfb"/>
    <path id="Path_177" data-name="Path 177" d="M229.489,89.008V75.482h8.521v1.894h-6.435V81.26h5.894v1.894h-5.894v3.961h6.531v1.894Z" transform="translate(-114.604 -37.695)" fill="#fcfdfb"/>
    <path id="Path_178" data-name="Path 178" d="M278.084,89.008V75.482H282.1l3.672,12.135h.309V75.482h2.068V89.008h-4.019l-3.671-12.154h-.309V89.008Z" transform="translate(-138.871 -37.695)" fill="#fcfdfb"/>
    <g id="Group_127-2" data-name="Group 127" transform="translate(0 0)">
      <g id="Group_126" data-name="Group 126" clip-path="url(#clip-path)">
        <path id="Path_179" data-name="Path 179" d="M335.2,89.01a5.278,5.278,0,0,1-2.589-.628,4.466,4.466,0,0,1-1.8-1.845,6.194,6.194,0,0,1-.657-2.976V80.392a4.947,4.947,0,0,1,5.372-5.449,5.051,5.051,0,0,1,3.748,1.323,4.812,4.812,0,0,1,1.314,3.546v.1h-2.068v-.155a3.346,3.346,0,0,0-.328-1.5A2.464,2.464,0,0,0,337.2,77.2a3.277,3.277,0,0,0-1.681-.387,3.132,3.132,0,0,0-2.415.937,3.676,3.676,0,0,0-.87,2.6V83.6a3.718,3.718,0,0,0,.87,2.6,3.124,3.124,0,0,0,2.434.956,2.793,2.793,0,0,0,2.261-.85,3.309,3.309,0,0,0,.715-2.2V83.85h-3.633v-1.8h5.7v6.686h-1.932V87.367h-.309a3.344,3.344,0,0,1-.512.753,2.474,2.474,0,0,1-.966.638,4.6,4.6,0,0,1-1.672.251" transform="translate(-164.873 -37.425)" fill="#fcfdfb"/>
        <path id="Path_180" data-name="Path 180" d="M383.379,89.008V75.482H391.9v1.894h-6.434V81.26h5.894v1.894h-5.894v3.961H392v1.894Z" transform="translate(-191.454 -37.695)" fill="#fcfdfb"/>
        <path id="Path_181" data-name="Path 181" d="M431.973,89.008V75.482h4.019l3.671,12.135h.309V75.482h2.068V89.008h-4.019L434.35,76.854h-.309V89.008Z" transform="translate(-215.721 -37.695)" fill="#fcfdfb"/>
        <path id="Path_182" data-name="Path 182" d="M484.737,89.008V75.482h2.087v5.8h5.68v-5.8h2.088V89.008H492.5V83.173h-5.68v5.835Z" transform="translate(-242.071 -37.695)" fill="#fcfdfb"/>
        <path id="Path_183" data-name="Path 183" d="M535.07,89.008l3.864-13.526h3.671l3.845,13.526h-2.145l-.889-3.188h-5.294l-.889,3.188Zm3.574-5.12H542.9l-1.971-7.111h-.309Z" transform="translate(-267.206 -37.695)" fill="#fcfdfb"/>
        <path id="Path_184" data-name="Path 184" d="M588.49,89.008V75.482h5.681a5.3,5.3,0,0,1,2.213.435A3.311,3.311,0,0,1,598.4,79.1v.213a3.176,3.176,0,0,1-.609,2.038,3.264,3.264,0,0,1-1.478,1.072v.309a1.711,1.711,0,0,1,1.178.493,1.788,1.788,0,0,1,.444,1.3v4.483h-2.106V84.815a1.219,1.219,0,0,0-.27-.831,1.1,1.1,0,0,0-.87-.309h-4.116v5.333Zm2.087-7.227h3.362a2.471,2.471,0,0,0,1.739-.57,2.011,2.011,0,0,0,.619-1.555V79.5a2.028,2.028,0,0,0-.609-1.556,2.467,2.467,0,0,0-1.749-.57h-3.362Z" transform="translate(-293.884 -37.695)" fill="#fcfdfb"/>
        <rect id="Rectangle_94" data-name="Rectangle 94" width="2.087" height="13.526" transform="translate(320.344 37.787)" fill="#fcfdfb"/>
        <path id="Path_185" data-name="Path 185" d="M674.718,89.008l3.864-13.526h3.672L686.1,89.008h-2.145l-.889-3.188h-5.295l-.889,3.188Zm3.574-5.12h4.251l-1.971-7.111h-.309Z" transform="translate(-336.945 -37.695)" fill="#fcfdfb"/>
        <path id="Path_186" data-name="Path 186" d="M293.225,26.684h8.815V17.834h14.039v-5.5H302.041v-4.7h15.294V2.088H293.225Z" transform="translate(-146.433 -1.043)" fill="#fcfdfb"/>
        <path id="Path_187" data-name="Path 187" d="M380,14.559a7.389,7.389,0,0,0,1.569-4.668,7.954,7.954,0,0,0-2.892-6.237c-2.056-1.5-4.7-1.533-6.863-1.567H353.732v24.6h8.815V17.73h4.7l5.052,8.954h9.754l-6.166-9.825a7.091,7.091,0,0,0,4.111-2.3m-10.835-2.4h-6.618V7.662h7.316a3.273,3.273,0,0,1,2.264.7,2.1,2.1,0,0,1,.627,1.567c0,2.2-2.23,2.23-3.588,2.23" transform="translate(-176.649 -1.043)" fill="#fcfdfb"/>
        <path id="Path_188" data-name="Path 188" d="M430.264,2.088l-10.591,24.6h9.651l1.323-4.007h9.407l1.324,4.007h9.581L440.3,2.088Zm2.23,15.155,2.822-8.327,2.891,8.327Z" transform="translate(-209.579 -1.043)" fill="#fcfdfb"/>
        <path id="Path_189" data-name="Path 189" d="M512.359,7.662c0,3.309.036,4.494.175,7.873a55.187,55.187,0,0,0-4.356-5.156l-7.56-8.292h-7.281v24.6h8.71V21.459c-.036-3.136-.036-4.077-.14-8.327,1.115,1.394,1.533,1.916,2.787,3.38l9.024,10.172h7.316V2.088h-8.675Z" transform="translate(-246.366 -1.043)" fill="#fcfdfb"/>
        <path id="Path_190" data-name="Path 190" d="M584.742,19.3a7.93,7.93,0,0,1-4.981,1.637c-5.052,0-7.246-3.867-7.246-7.6,0-5.225,3.553-7.7,7.524-7.7a8.148,8.148,0,0,1,4.215,1.115,5.421,5.421,0,0,1,2.057,2.474l8.151-1.464C593.66,5.435,591.78,0,579.83,0c-14.005,0-16.514,8.605-16.514,13.378,0,6.759,4.182,10.627,9.232,12.194a23.823,23.823,0,0,0,7.038.906c5.4,0,11.044-1.255,13.936-5.715a11.271,11.271,0,0,0,1.393-3.065l-8.4-.871a5.254,5.254,0,0,1-1.777,2.474" transform="translate(-281.312 0)" fill="#fcfdfb"/>
        <path id="Path_191" data-name="Path 191" d="M662.209,1.7A23.99,23.99,0,0,0,653.046.276c-4.354.069-10.208.871-13.657,5.749a13.311,13.311,0,0,0-2.264,7.7,11.708,11.708,0,0,0,2.335,7.421c1.811,2.474,5.33,5.5,13.9,5.5,4.459,0,8.431-.627,11.775-3.275a11.56,11.56,0,0,0,2.926-3.309,13,13,0,0,0,1.777-6.689A12.251,12.251,0,0,0,662.209,1.7m-5.086,18.778a7.715,7.715,0,0,1-3.554.7c-5.33,0-7.386-3.937-7.386-7.734,0-3.38,1.847-7.77,7.386-7.7,6.028.07,7.212,5.017,7.212,7.7,0,2.474-.94,5.679-3.658,7.037" transform="translate(-318.171 -0.136)" fill="#fcfdfb"/>
        <path id="Path_192" data-name="Path 192" d="M232.087,2.088H223.47V7.74h8.616V21.031H223.47v5.652h26.379V21.031H240.9V7.74h8.947V2.088H232.087Z" transform="translate(-111.598 -1.043)" fill="#fcfdfb"/>
      </g>
    </g>
  </g>
</svg>
