<svg id="Group_242" data-name="Group 242" xmlns="http://www.w3.org/2000/svg" xmlns:xlink="http://www.w3.org/1999/xlink" width="272.703" height="127.084" viewBox="0 0 272.703 127.084">
  <defs>
    <clipPath id="clip-path">
      <rect id="Rectangle_101" data-name="Rectangle 101" width="272.703" height="127.085" fill="none"/>
    </clipPath>
  </defs>
  <g id="Group_136" data-name="Group 136">
    <rect id="Rectangle_96" data-name="Rectangle 96" width="15.847" height="49.776" transform="translate(90.826 0)" fill="#fcfdfb"/>
    <rect id="Rectangle_97" data-name="Rectangle 97" width="15.846" height="49.776" transform="translate(121.245 0)" fill="#fcfdfb"/>
    <rect id="Rectangle_98" data-name="Rectangle 98" width="30.006" height="17.929" transform="translate(151.391)" fill="#fcfdfb"/>
    <rect id="Rectangle_99" data-name="Rectangle 99" width="30.005" height="19.55" transform="translate(151.391 30.226)" fill="#fcfdfb"/>
  </g>
  <path id="Path_193" data-name="Path 193" d="M7.13,231.8v15.383h9.8v-2.154H9.5v-4.5h6.7v-2.154H9.5v-4.417H16.82V231.8Z" transform="translate(-3.704 -120.407)" fill="#fcfdfb"/>
  <path id="Path_194" data-name="Path 194" d="M73.8,231.8v13.8h-.352l-4.175-13.8H64.7v15.383h2.352V233.362H67.4l4.175,13.822h4.571V231.8Z" transform="translate(-33.608 -120.407)" fill="#fcfdfb"/>
  <g id="Group_129" data-name="Group 129">
    <g id="Group_128" data-name="Group 128" clip-path="url(#clip-path)">
      <path id="Path_195" data-name="Path 195" d="M132.12,247.16a6,6,0,0,1-2.944-.715,5.081,5.081,0,0,1-2.044-2.1,7.043,7.043,0,0,1-.747-3.384v-3.6a5.626,5.626,0,0,1,6.109-6.2,5.745,5.745,0,0,1,4.263,1.5,5.474,5.474,0,0,1,1.495,4.033v.11H135.9v-.176a3.8,3.8,0,0,0-.373-1.7,2.807,2.807,0,0,0-1.121-1.2,3.73,3.73,0,0,0-1.912-.44,3.562,3.562,0,0,0-2.747,1.066,4.179,4.179,0,0,0-.989,2.955v3.692a4.227,4.227,0,0,0,.989,2.955,3.551,3.551,0,0,0,2.769,1.088,3.175,3.175,0,0,0,2.571-.967,3.762,3.762,0,0,0,.813-2.505v-.285h-4.131v-2.044h6.483v7.6h-2.2v-1.56H135.7a3.784,3.784,0,0,1-.582.857,2.81,2.81,0,0,1-1.1.725,5.224,5.224,0,0,1-1.9.286" transform="translate(-65.65 -120.076)" fill="#fcfdfb"/>
      <path id="Path_196" data-name="Path 196" d="M189.443,247.185V231.8h9.691v2.153h-7.317v4.417h6.7v2.154h-6.7v4.5h7.428v2.153Z" transform="translate(-98.405 -120.408)" fill="#fcfdfb"/>
      <path id="Path_197" data-name="Path 197" d="M247.013,247.185V231.8h4.571l4.175,13.8h.352V231.8h2.352v15.382h-4.571l-4.175-13.822h-.352v13.822Z" transform="translate(-128.309 -120.408)" fill="#fcfdfb"/>
      <path id="Path_198" data-name="Path 198" d="M309.522,247.185V231.8H311.9v6.592h6.46V231.8h2.374v15.382h-2.374v-6.636H311.9v6.636Z" transform="translate(-160.779 -120.408)" fill="#fcfdfb"/>
      <path id="Path_199" data-name="Path 199" d="M369.151,247.185l4.395-15.383h4.176l4.373,15.383h-2.439l-1.011-3.626h-6.021l-1.011,3.626Zm4.065-5.823h4.834l-2.241-8.087h-.352Z" transform="translate(-191.752 -120.408)" fill="#fcfdfb"/>
      <path id="Path_200" data-name="Path 200" d="M432.438,247.184V231.8H438.9a6.029,6.029,0,0,1,2.516.495,3.764,3.764,0,0,1,2.3,3.615v.242a3.613,3.613,0,0,1-.692,2.318,3.718,3.718,0,0,1-1.681,1.22v.351a1.946,1.946,0,0,1,1.34.56,2.034,2.034,0,0,1,.505,1.483v5.1h-2.4v-4.769a1.387,1.387,0,0,0-.307-.945,1.254,1.254,0,0,0-.99-.352h-4.68v6.065Zm2.373-8.219h3.823a2.81,2.81,0,0,0,1.977-.648,2.287,2.287,0,0,0,.7-1.769v-.175a2.306,2.306,0,0,0-.693-1.769,2.8,2.8,0,0,0-1.989-.648h-3.823Z" transform="translate(-224.626 -120.408)" fill="#fcfdfb"/>
      <rect id="Rectangle_100" data-name="Rectangle 100" width="2.373" height="15.382" transform="translate(237.081 111.394)" fill="#fcfdfb"/>
      <path id="Path_201" data-name="Path 201" d="M534.592,247.185l4.395-15.383h4.176l4.373,15.383H545.1l-1.011-3.626h-6.021l-1.011,3.626Zm4.065-5.823h4.834l-2.241-8.087H540.9Z" transform="translate(-277.689 -120.408)" fill="#fcfdfb"/>
      <path id="Path_202" data-name="Path 202" d="M82.638,172.823H92.663V162.76h15.966V156.5H92.663v-5.349h17.393v-6.3H82.638Z" transform="translate(-42.926 -75.242)" fill="#fcfdfb"/>
      <path id="Path_203" data-name="Path 203" d="M184.193,159.035a8.4,8.4,0,0,0,1.784-5.308,9.045,9.045,0,0,0-3.289-7.093c-2.337-1.7-5.349-1.743-7.805-1.782H154.32v27.971h10.025V162.64h5.347l5.746,10.183H186.53l-7.012-11.173a8.067,8.067,0,0,0,4.675-2.615M171.871,156.3h-7.527v-5.11h8.32a3.719,3.719,0,0,1,2.574.792,2.381,2.381,0,0,1,.713,1.782c0,2.5-2.535,2.535-4.081,2.535" transform="translate(-80.16 -75.242)" fill="#fcfdfb"/>
      <path id="Path_204" data-name="Path 204" d="M244.486,144.852l-12.045,27.971h10.975l1.505-4.557h10.7l1.505,4.557h10.9L255.9,144.852Zm2.535,17.235,3.21-9.47,3.287,9.47Z" transform="translate(-120.739 -75.242)" fill="#fcfdfb"/>
      <path id="Path_205" data-name="Path 205" d="M341.342,151.191c0,3.763.04,5.11.2,8.954a62.692,62.692,0,0,0-4.954-5.863l-8.6-9.43h-8.28v27.971h9.906v-5.943c-.04-3.566-.04-4.636-.159-9.47,1.268,1.585,1.743,2.179,3.169,3.844l10.262,11.569h8.32V144.852h-9.865Z" transform="translate(-166.071 -75.242)" fill="#fcfdfb"/>
      <path id="Path_206" data-name="Path 206" d="M426.98,164.328a9.018,9.018,0,0,1-5.665,1.861c-5.746,0-8.241-4.4-8.241-8.638,0-5.942,4.041-8.755,8.557-8.755a9.267,9.267,0,0,1,4.794,1.268,6.166,6.166,0,0,1,2.339,2.813l9.269-1.665c-.911-2.653-3.05-8.835-16.64-8.835-15.927,0-18.78,9.786-18.78,15.214,0,7.686,4.755,12.085,10.5,13.867a27.093,27.093,0,0,0,8,1.031c6.141,0,12.559-1.427,15.848-6.5a12.822,12.822,0,0,0,1.584-3.486l-9.547-.99a5.979,5.979,0,0,1-2.021,2.813" transform="translate(-209.134 -73.957)" fill="#fcfdfb"/>
      <path id="Path_207" data-name="Path 207" d="M518.581,144.329a27.276,27.276,0,0,0-10.42-1.625c-4.952.079-11.609.991-15.532,6.538A15.138,15.138,0,0,0,490.055,158a13.317,13.317,0,0,0,2.655,8.439c2.06,2.813,6.062,6.26,15.807,6.26,5.071,0,9.588-.713,13.391-3.724a13.128,13.128,0,0,0,3.328-3.763,14.789,14.789,0,0,0,2.021-7.606,13.932,13.932,0,0,0-8.677-13.274M512.8,165.683a8.768,8.768,0,0,1-4.042.793c-6.062,0-8.4-4.477-8.4-8.8,0-3.843,2.1-8.836,8.4-8.755,6.855.078,8.2,5.7,8.2,8.755,0,2.814-1.069,6.459-4.16,8" transform="translate(-254.555 -74.125)" fill="#fcfdfb"/>
      <path id="Path_208" data-name="Path 208" d="M9.8,144.852H0v6.428H9.8V166.4H0v6.428H30V166.4H19.823V151.281H30v-6.428H9.8Z" transform="translate(0 -75.242)" fill="#fcfdfb"/>
    </g>
  </g>
</svg>
