<svg width="0" height="0" class="hidden">
  <symbol id="ambar" xmlns="http://www.w3.org/2000/svg" xmlns:xlink="http://www.w3.org/1999/xlink" viewBox="0 0 241.973 100.743">
    <defs>
      <clipPath id="clip-path">
        <rect id="Rectangle_54" width="241.973" height="100.743" fill="#fef4f1"></rect>
      </clipPath>
    </defs>
    <g id="Group_35" clip-path="url(#clip-path)">
      <path id="Path_75" d="M160.209,60.885c-.454-.284-.335-.758-.357-1.165q-1.02-18.694-2.032-37.388a34.869,34.869,0,0,0-.758-5.848q-2.441,5.566-4.88,11.133c-4.3,9.852-8.61,19.7-12.862,29.57a2.1,2.1,0,0,1-2.276,1.507c-2.817-.055-2.82,0-3.917-2.518q-8.227-18.9-16.461-37.8c-.18-.413-.251-.924-.9-1.263-.208,3.81-.367,7.522-.619,11.227-.827,12.131-1.708,24.259-2.506,36.392-.081,1.23-.523,1.514-1.648,1.47-2.033-.079-4.073-.067-6.107-.01a1.456,1.456,0,0,1-1.624-1.157Q95.336,43.085,87.356,21.15c-.633-1.742-.646-1.772,1.168-1.733,1.6.035,3.481-.6,4.718.254,1.168.807,1.252,2.737,1.783,4.184q5.414,14.76,10.827,29.521a1.628,1.628,0,0,0,.663.994,10.732,10.732,0,0,0,.478-3.419q1.6-21.794,3.155-43.593c.1-1.389.2-2.78.242-4.171.029-.913.334-1.27,1.339-1.287,4.531-.079,4.484-.095,6.334,4.056q8.914,20,17.889,39.97c.167.373.225.822.773,1.07a28.005,28.005,0,0,0,2.317-4.672q8.866-19.5,17.647-39.035A2,2,0,0,1,158.834,1.9c4.06.062,4.043.011,4.312,4.056q1.812,27.179,3.64,54.356c.111,1.657.159,3.317.275,4.973.041.585-.032.969-.739.868-1.371-2.528-3.075-4.669-6.112-5.263" transform="translate(-58.976 -1.275)" fill="#fef4f1"></path>
      <path id="Path_76" d="M453.848,55.457q4.391-11.967,8.784-23.933c3.592-9.733,7.221-19.453,10.787-29.2A1.45,1.45,0,0,1,475,1.155c3.479-.039,3.5-.079,4.683,3.15q8.536,23.269,17.056,46.544c.12.327.3.631.5,1.044a3.262,3.262,0,0,0,.249-1.855c.009-15.271.028-30.543-.028-45.814-.005-1.463.364-2.018,1.859-2.253,6.6-1.038,13.176-1.816,19.852-.522,7.207,1.4,12.468,6.4,13.843,13.417a17.567,17.567,0,0,1-7.584,18.447c-1.59,1.023-1.584,1.017-.25,2.421,3.358,3.534,5.031,7.937,6.185,12.53,1.355,5.393,2.366,10.869,4.137,16.161.623,1.861-.975.641-1.508.913-.615-.6-.569-1.448-.831-2.18-.235-.659-.513-1.18-1.361-.889-.766.263-1.144.679-.816,1.546.18.477.547.934.35,1.506-2.4.254-2.41.257-3.036-2.008-.437-1.583-.845-3.173-1.267-4.759,4.159-2.847,4.087-6.3-.2-9.015-.8-.5-1.632-.945-2.449-1.415-.973-3.908-2.726-7.461-6.379-9.342-2.111-1.087-2.709-2.348-2.424-4.426a2.226,2.226,0,0,0-.007-.321c-.031-3.138-.031-3.138,2.961-4.176.051-.018.1-.033.152-.052a11.293,11.293,0,0,0,7.854-11.283c-.1-5.6-2.668-9.062-8.123-10.752-4.459-1.382-9-1.019-13.539-.435-.883.113-.785.716-.786,1.3-.005,2.947,0,5.894,0,8.841q-.018,22.744-.039,45.49a68.7,68.7,0,0,1-9.4.587c-2.3-6.214-4.625-12.416-6.883-18.643-3.735-10.3-7.424-20.622-11.136-30.932-.1-.291-.257-.565-.377-.823-.522.016-.522.429-.615.687q-7.2,19.9-14.375,39.817a13.078,13.078,0,0,1-.626,1.288,24.14,24.14,0,0,0-6.794.511" transform="translate(-307.768 -0.523)" fill="#fef4f1"></path>
      <path id="Path_77" d="M374.893,57.229a20.259,20.259,0,0,1-9.98,6.945c-5.9,1.784-11.933,1.661-17.984,1.354a11.127,11.127,0,0,1-1.119-.107c-1.358-.208-3.241.329-3.948-.645-.671-.924-.243-2.667-.244-4.05q-.011-28.352-.037-56.7c0-1.336.373-1.8,1.677-2.082a44.889,44.889,0,0,1,18.789-.61c6.412,1.3,11.136,4.659,12.741,11.333,1.744,7.254-.437,13.172-6.433,17.652-.167.125-.337.247-.528.387.361.648,1.023.777,1.549,1.087a17.138,17.138,0,0,1,8.265,17.025,20.8,20.8,0,0,1-1.791,6.457c-.123.256-.419.541-.022.826l.024-.053c-.453-.085-.387.219-.365.489l-.595.7M348.2,46.687h.008c0,3.75.045,7.5-.027,11.251-.022,1.123.357,1.477,1.427,1.546a39.769,39.769,0,0,0,10.092-.346c3.694-.708,7.119-2.076,9.377-5.327,4.615-6.646,1.406-15.533-6.574-18.323-4.4-1.537-8.962-1.248-13.5-1.271-.96,0-.8.656-.8,1.22q-.01,5.626,0,11.251m0-29.128c0,3.105.035,6.211-.021,9.315-.017.98.289,1.321,1.269,1.3,2.408-.058,4.819.011,7.226-.056a13.493,13.493,0,0,0,6.456-1.689,9.96,9.96,0,0,0,5.458-9.61A8.981,8.981,0,0,0,362.151,8c-4.243-1.518-8.619-1.351-13.012-.908-.918.093-.946.616-.942,1.315.018,3.051.008,6.1.006,9.155" transform="translate(-231.571 -0.404)" fill="#fef4f1"></path>
      <path id="Path_78" d="M534.376,155.814a68.723,68.723,0,0,0,9.4-.586c1.175.22,2.312-.211,3.477-.2,1.107.014,1.269-.407.886-1.464-1.14-3.147-2.265-6.309-3.172-9.528-1.122-3.98.273-6.131,4.278-6.994a10.194,10.194,0,0,1,1.9-.216c4.674-.107,8.874,1.531,12.966,3.556.818.47,1.653.911,2.449,1.415,4.288,2.711,4.36,6.168.2,9.015a47.037,47.037,0,0,1-13.9,4.7c-1.313.246-1.807.6-1.2,2s.976,2.916,1.462,4.423c2.877-3.462,6.671-3.164,10.459-2.723a1.791,1.791,0,0,1,1.786,1.571c.075,1.017-.706,1.547-1.466,1.924a23.682,23.682,0,0,1-7.259,1.791c-.189.028-.442-.1-.543.176-.066,1.02,2.057,1.122,1.1,2.372-.718.934-1.63.362-2.672-.6l2.331,8.463c.368,1.337.75,2.671,1.1,4.014.188.724.19,1.4-.746,1.635-.969.248-1.157-.367-1.361-1.108Q554,172.727,552.1,166.025c-.213-.755-.348-1.6-1.541-1.345-.525.113-1.408.271-1.482-.474-.083-.84.714-1.058,1.475-1.059a4.271,4.271,0,0,0,.619-.113c-.649-2.052-1.337-4.06-1.906-6.1-.249-.891-.788-.679-1.358-.6-3.676.537-7.294,1.614-11.074,1.2a2.433,2.433,0,0,0-.482,0c-1.056.1-2.6-.617-3.045.119-.53.886.453,2.169.849,3.25,1.3,3.556,2.664,7.092,4.02,10.629.278.725.657,1.472-.338,1.891-1.055.445-1.4-.338-1.7-1.136-1.679-4.5-3.39-8.992-5.025-13.51-.335-.925-.711-1.365-1.788-1.335-5.385.15-10.624-.977-15.874-1.971-.447-.085-1.153-.147-1.014-.764a1.26,1.26,0,0,1,1.534-.839c1.315.209,2.614.517,3.921.78a76.637,76.637,0,0,0,10.5,1.334c1.795.109,1.777.076,1.231-1.56-.759-2.275-1.484-4.561-2.226-6.841-.262-.805-.489-1.663.587-1.992,1.182-.361,1.245.666,1.486,1.4.829,2.537,1.715,5.059,2.455,7.622.414,1.435,1.179,1.731,2.452,1.188m30.963-12.34a23.622,23.622,0,0,0-5.741-3.086,19.53,19.53,0,0,0-10.1-1.93,2.677,2.677,0,0,0-2.785,3,6.849,6.849,0,0,0,.333,2.367c1.142,3.269,2.279,6.539,3.387,9.819.228.674.494.868,1.266.724a47.555,47.555,0,0,0,7.739-1.953c2.47-.91,5.172-1.418,7.09-3.479,1.732-1.989,1.291-4.013-1.191-5.458m-1.715,17.631a10.168,10.168,0,0,0-7.373.143,1.646,1.646,0,0,0-.96.994c-.246.582-.047.837.527.777a20.528,20.528,0,0,0,7.806-1.914" transform="translate(-347.488 -92.785)" fill="#fef4f1"></path>
      <path id="Path_79" d="M272.862,185.2c3.037.594,4.741,2.736,6.112,5.263a52.017,52.017,0,0,1,2.49,10.185c.13.783.353.885,1.016.525a16.407,16.407,0,0,1,2.321-1.078c1.868-.663,2.925-.015,3.106,1.933a4.85,4.85,0,0,0,.832,2.543c.9,1.214,1.647,1.238,2.509.019a14.372,14.372,0,0,0,1.07-1.968,5.951,5.951,0,0,1,1.173-1.712c.571-.549,1.135-1.263,2.039-.893s.389,1.207.449,1.851a9.494,9.494,0,0,0,.141,1.433c.255,1.008.612,2.143,1.9,1.964a2.238,2.238,0,0,0,2.016-2.283c.324-4.4,5.136-8.014,9.228-7.014a3.1,3.1,0,0,1,2.727,3.373,2.951,2.951,0,0,0,3.243,3.02c.6-.03,1.122.075,1.237.72.1.577-.391.814-.841,1.009a3.4,3.4,0,0,1-3.87-.621c-.881-.838-1.3-.547-2,.125a10.031,10.031,0,0,1-4.031,2.528,4.328,4.328,0,0,1-3.138,0,2.227,2.227,0,0,0-2.664.307c-2.393,1.77-4.508.887-6.015-2.481l-.532.933c-1.087,1.9-2.419,2.718-4.128,2.384a4.043,4.043,0,0,1-3.212-3.4c-.528-2.181-.482-2.074-2.619-1.144a1.855,1.855,0,0,0-1.221,2.469c.556,2.886,1.012,5.791,1.518,8.687.157.9.022,1.6-1.055,1.76-1.123.162-1-.749-1.114-1.363-.5-2.84-.986-5.685-1.422-8.536-.146-.956-.447-1.257-1.436-.862-1.029.41-2.55.295-3.1,1s-.14,2.136-.176,3.248c-.245,7.617-6.977,15.212-14.867,16.835a21.79,21.79,0,0,1-6.072.29c-.544-.041-1.428.11-1.378-.676s.924-1.072,1.614-.911a13.719,13.719,0,0,0,5.4-.064c7.925-1.28,14.252-9.809,13.176-17.746-.116-.855-.426-1.175-1.308-1.17a14.944,14.944,0,0,1-5.419-1.309c-.533-.205-1.26-.4-.932-1.193a1.186,1.186,0,0,1,1.722-.626,16.132,16.132,0,0,0,4.144,1.2c.358.047.733.2,1.136-.079a27.852,27.852,0,0,0-2.2-6.1,39.793,39.793,0,0,1-2.009-5.905c-.816-3.377.233-5.159,3.552-6.136.307-.09.6-.222.9-.335m-.089,1.922c-1.93-.2-2.568.347-2.5,2.251a11.523,11.523,0,0,0,.331,2.208c.96,4.054,3.241,7.633,4.236,11.677.06.247.207.55.519.528a8.21,8.21,0,0,0,3.811-1.078c.849-.535.057-1.457.014-2.2a13.9,13.9,0,0,0-.4-2.687c-.663-2.543-.782-5.278-2.524-7.457a5.238,5.238,0,0,0-3.489-3.244m31.848,17.238a2.14,2.14,0,0,0,.82-.1c2-.857,3.42-2.494,5.041-3.858a.528.528,0,0,0,.16-.418,3.375,3.375,0,0,0-3.877-2.442c-2.2.446-3.415,2.056-4.3,3.941-.868,1.858-.188,2.852,2.152,2.874" transform="translate(-171.629 -125.59)" fill="#fef4f1"></path>
      <path id="Path_80" d="M444.047,171.423l.595-.7c.163-.132.4-.2.365-.488l-.024.053,1.821-.758a24.118,24.118,0,0,1,6.8-.512c2.24.806,4.66,1.1,6.7,2.463,2.742,1.831,4.874,4.033,4.754,7.62a5.129,5.129,0,0,1-1.821,3.633c-.6.555-.656.837.169,1.172a27.007,27.007,0,0,1,4.855,2.764c1.375.923,2.9.067,4.362.16.312.02.218-.41.286-.651a4.26,4.26,0,0,1,4.7-3.209,4.183,4.183,0,0,1,4.182,3.664c.086.787.475.965,1,1.164.49.185,1.2.256.981.962a1.148,1.148,0,0,1-1.444.736,3.194,3.194,0,0,0-2.7.319c-.707.291-1.691.515-1.764-.782-.041-.726-.548-.559-.909-.569a37.854,37.854,0,0,0-6.115.182c.867,1.024,1.64,1.92,2.4,2.832a12.693,12.693,0,0,1,2,3.259c2.543,6.163-1.174,11.856-8.294,12.44-7.189.589-13.456-1.995-18.926-6.424-3.455-2.8-3.109-6.165.511-8.756,2.537-1.817,5.51-2.5,8.472-3.173,2.009-.459,2-.427,1.264-2.3-.24-.609-.428-.771-1.128-.591a10.063,10.063,0,0,1-5.377.065c-.822-.239-1.763-.449-1.8-1.528a2.086,2.086,0,0,1,1.553-2.023,10.727,10.727,0,0,1,3.116-.665c.8-.057,1.764.459,2.093-.993.177-.781,1.539-.52,1.933.347.887,1.949,1.845,2.1,3.252.517a3.887,3.887,0,0,0,.557-4.751,11.466,11.466,0,0,0-9.486-5.926,18.876,18.876,0,0,0-4.928-.065,2.691,2.691,0,0,0-2.562,2.021,5.74,5.74,0,0,1-.917,2.184c-1.4-1.058-1.363-2.319-.526-3.7m17.6,18.1c.3.883.511,1.653.813,2.386.292.708.484,1.3-.452,1.681-1,.406-1.309-.208-1.6-.971-1.052-2.728-1.068-2.756-3.912-2.088a18.184,18.184,0,0,0-6.689,2.519c-2.458,1.761-2.7,3.927-.557,6.026,3.094,3.029,6.993,4.63,11.072,5.8a14.954,14.954,0,0,0,9.129.117c3.452-1.175,5.022-3.685,4.454-7.271-.6-3.807-3.239-6.254-5.91-8.66a.919.919,0,0,0-.594-.17,39.573,39.573,0,0,0-5.752.636m3.6-2.037a12.156,12.156,0,0,0-4.4-2.685c-.544-.215-.786,0-.714.61.239,2.032.94,2.528,3.057,2.2.676-.1,1.371-.089,2.056-.129m14.425-.517c-.85-2.158-3.079-2.87-4.259-1.512-.23.265-.505.587-.337.977.148.343.507.3.829.316,1.209.059,2.418.138,3.767.219m-22.069-2.8c-2.079-.961-3.935-.949-5.367-.029a7.215,7.215,0,0,0,5.367.029" transform="translate(-300.725 -114.599)" fill="#fef4f1"></path>
      <path id="Path_81" d="M3.081,103.028c-3.5,0-3.54-.016-2.46-2.933,5.263-14.223,10.565-28.432,15.8-42.667a1.494,1.494,0,0,1,1.725-1.192,29.913,29.913,0,0,0,3.691-.007c1.324-.109,1.554.293,1.1,1.506-1.34,3.546-2.591,7.126-3.887,10.689-4,10.995-8.03,21.978-11.962,33-.438,1.229-.932,1.8-2.232,1.622a13.164,13.164,0,0,0-1.764-.013" transform="translate(0 -38.119)" fill="#fef4f1"></path>
      <path id="Path_82" d="M688.571,173.407c.2-.573-.17-1.03-.35-1.506-.327-.867.05-1.284.816-1.547.848-.291,1.126.23,1.361.889.261.732.215,1.583.831,2.18-.081.535-.07.952.686.91a13.965,13.965,0,0,1,5.458.945,17.648,17.648,0,0,0-2.258-5.058c-.378-.643-.806-1.258-1.162-1.914-1.306-2.406-.706-4.373,1.74-5.58,1.716-.846,3.61-1.292,5.243-2.347.355-.23.993-.42,1.253.191.219.515-.31.782-.654.96a26.151,26.151,0,0,1-3.041,1.4c-3.385,1.229-3.939,2.592-1.99,5.6a25.638,25.638,0,0,1,3.429,7.367c.135.51.68,1.081-.024,1.586a1.769,1.769,0,0,1-1.957.083,17.555,17.555,0,0,0-4.026-1.534c-.664-.139-1.347-.186-2.21-.3,1.436,4.722,2.816,9.251,4.191,13.782.232.764.461,1.53.656,2.3a2.528,2.528,0,0,1-1.231,3.153,2.7,2.7,0,0,1-3.505-.593,21.238,21.238,0,0,1-5.257-9.234c-.624-2.323-1.272-4.646-.53-7.076a4.085,4.085,0,0,1,2.087-2.709c1.051-.5,1.169-1.1.443-1.949m5.71,20.434c.6-.844.216-1.578.016-2.248-1.445-4.84-2.933-9.667-4.417-14.494-.1-.329-.071-.833-.528-.863-.394-.026-.623.378-.831.681a4.686,4.686,0,0,0-.7,3.222,25.1,25.1,0,0,0,.561,3.474,20.139,20.139,0,0,0,5.9,10.228" transform="translate(-465 -108.609)" fill="#fef4f1"></path>
      <path id="Path_83" d="M238.98,218.445a26.638,26.638,0,0,0,4.678.221,1.529,1.529,0,0,1,1.657,1.023c.233.879-.673.97-1.184,1.25a6.279,6.279,0,0,1-3.26.674c-1.45-.049-2.852.275-4.281.347-.611.031-.778.357-.924.882a36.944,36.944,0,0,0-.855,4.886c-.114.828-.226,1.663-1.317,1.658-1.016,0-1.453-.624-1.681-1.588a11.349,11.349,0,0,1,.025-4.254c.194-1.378-.413-1.461-1.436-1.193-.517.135-1.022.321-1.542.439a3.177,3.177,0,0,1-3.848-2.261c-.2-.851.4-1.22,1.111-1.484a25.655,25.655,0,0,1,5.83-.91c.882-.111,1.319-.335,1.559-1.222.457-1.687,1.019-3.348,1.6-5,.423-1.2,1.281-.636,1.715-.141a3.059,3.059,0,0,1,.808,2.8c-.169.67-.444,1.316-.586,1.99-.333,1.589.027,1.982,1.929,1.882" transform="translate(-152.562 -143.221)" fill="#fef4f1"></path>
      <path id="Path_84" d="M66.884,12.669c-1.661,0-3.323-.034-4.982.014-.966.029-1.4-.107-.958-1.229,1.15-2.937,2.222-5.905,3.287-8.874a1.141,1.141,0,0,1,1.156-.86c3.685-.307,3.7-.33,5.007,3.138.83,2.2,1.554,4.444,2.421,6.631.372.938.239,1.226-.788,1.193-1.713-.054-3.428-.015-5.143-.014" transform="translate(-41.211 -1.08)" fill="#fef4f1"></path>
      <path id="Path_85" d="M708.7,6.692a6.934,6.934,0,0,1,13.864.164A6.934,6.934,0,0,1,708.7,6.692m1.723.028c-.015,2.834,2.4,5.606,5.012,5.74,2.628.135,5.423-2.8,5.433-5.7a5.318,5.318,0,0,0-5.224-5.387,5.216,5.216,0,0,0-5.22,5.349" transform="translate(-480.588 0)" fill="#fef4f1"></path>
      <path id="Path_86" d="M444.151,178.9a5.738,5.738,0,0,0,.917-2.184,2.69,2.69,0,0,1,2.561-2.021,18.863,18.863,0,0,1,4.927.065c-.9,2.552-1.813,5.1-2.686,7.66a1.157,1.157,0,0,1-1.307.876c-1.542-.036-3.09-.1-4.626.005-1.368.092-1.2-.531-.862-1.405.382-.989.718-2,1.074-3" transform="translate(-300.303 -118.375)" fill="#fef4f1"></path>
      <path id="Path_87" d="M594.732,222.53a2.124,2.124,0,0,1-.479-.005,2.181,2.181,0,0,1-1.612-.9c-.184-.332-.016-.614.287-.806a1.6,1.6,0,0,1,1.776-.025c1.353.689,2.177.311,2.849-1.161.373-.817,1.052-1.234,1.781-.875.8.393.241,1.177-.042,1.659-1.014,1.726-2.787,1.96-4.561,2.118" transform="translate(-401.836 -148.255)" fill="#fef4f1"></path>
      <path id="Path_88" d="M678.014,162.941a24.51,24.51,0,0,1-1.191-5.459c2.482,1.446,2.923,3.47,1.191,5.459" transform="translate(-458.974 -106.793)" fill="#fef4f1"></path>
      <path id="Path_89" d="M317.688,194.414c-3.52.447-3.575.4-3.49-3.244a5.24,5.24,0,0,1,3.49,3.244" transform="translate(-213.054 -129.638)" fill="#fef4f1"></path>
      <path id="Path_90" d="M721.77,13.544a3.945,3.945,0,0,1,.008-.8c.179-.845-.529-2.117.4-2.481a5.14,5.14,0,0,1,4.357.158A1.487,1.487,0,0,1,727,12.866c-.648.677-.492,1.042-.068,1.659a4.392,4.392,0,0,1,.451,1.351c.1.375.458.887-.212,1.032-.478.1-1.1.257-1.335-.479a6.284,6.284,0,0,1-.245-.761c-.167-.922-.669-1.5-1.638-1.352-1,.156-.472,1.018-.562,1.569-.084.516.087,1.079-.768,1.087-.925.009-.854-.582-.852-1.183,0-.748,0-1.5,0-2.244Zm1.637-1.291c.047.527-.178,1.246.8,1.143a1.406,1.406,0,0,0,1.414-1.212c.083-.838-.636-.963-1.3-1.021-.815-.071-.991.4-.915,1.09" transform="translate(-489.398 -6.684)" fill="#fef4f1"></path>
    </g>
  </symbol>
</svg>