<svg width="0" height="0" class="hidden">
  <symbol id="ingredion" xmlns="http://www.w3.org/2000/svg" xmlns:xlink="http://www.w3.org/1999/xlink" viewBox="0 0 219.401 140.695">
    <defs>
      <clipPath id="clip-path">
        <rect id="Rectangle_52" width="219.401" height="140.695" fill="#fff"></rect>
      </clipPath>
    </defs>
    <g id="Group_31" transform="translate(0 0)" clip-path="url(#clip-path)">
      <path id="Path_41" d="M348.6,0c1.025.139,1.412.946,1.847,1.726a88.6,88.6,0,0,1,9.872,28.354,73.581,73.581,0,0,1,.873,18.545,47.909,47.909,0,0,1-1.384,8.351,76.141,76.141,0,0,0-.3-8.908,62.816,62.816,0,0,0-1.676-8.86,69.2,69.2,0,0,0-2.888-8.54,72.117,72.117,0,0,0-3.95-8.11,73.875,73.875,0,0,0-4.916-7.572A67.05,67.05,0,0,0,340.229,8.1a58.288,58.288,0,0,0-6.858-6.022A37.714,37.714,0,0,1,339.645.537,22.693,22.693,0,0,0,342.932,0Z" transform="translate(-272.364)" fill="#fff"></path>
      <path id="Path_42" d="M0,491.23c1.889,0,3.778.023,5.667,0,.562-.008.792.107.791.74q-.028,18.635,0,37.271c0,.629-.224.755-.791.746-1.889-.031-3.778-.016-5.667-.018Z" transform="translate(0 -401.333)" fill="#fff"></path>
      <path id="Path_43" d="M233.559,191.719a37.148,37.148,0,0,1-36.051-47.42c.15-.557.421-.681.956-.667q26.728.732,40.1,23.867a43.378,43.378,0,0,1,5.478,16.976,36.536,36.536,0,0,1,.219,4.83.882.882,0,0,1-.782.992,41.1,41.1,0,0,1-4.631,1.005,30.852,30.852,0,0,1-5.287.417" transform="translate(-160.185 -117.347)" fill="#fff"></path>
      <path id="Path_44" d="M247.251,538.947a9.081,9.081,0,0,1-3.573,14.378,15.649,15.649,0,0,1-8.942,1.032,2.012,2.012,0,0,0-2.282,1.68,1.76,1.76,0,0,0,1.187,2.249,13.439,13.439,0,0,0,3.436.4,42.9,42.9,0,0,1,7.895.739c4.323,1.067,6.421,3.837,6.237,8.264a7.952,7.952,0,0,1-5.149,7.355,22.69,22.69,0,0,1-17.26.391,6.913,6.913,0,0,1-4.5-4.479,5.881,5.881,0,0,1,1.342-6.016,11.773,11.773,0,0,1,3.931-2.685,4.882,4.882,0,0,1-2.546-4.88c.16-2.1,1.516-3.368,3.146-4.409-.051-.277-.279-.337-.445-.451a9.378,9.378,0,0,1-4.252-9.115,9.51,9.51,0,0,1,6.117-8.291,14.272,14.272,0,0,1,7.607-1,48.425,48.425,0,0,0,7.006.419c1.706-.03,3.413.02,5.118-.02.616-.014.787.193.762.78-.042.972-.048,1.95,0,2.922.032.622-.2.77-.779.752-1.278-.04-2.558-.012-4.057-.012m-9.813,11.393c3.613,0,5.906-2.3,5.908-5.939,0-3.72-2.384-6.179-5.964-6.144-3.5.034-5.851,2.457-5.893,6.062a5.573,5.573,0,0,0,5.948,6.021m-.274,22.054a13.311,13.311,0,0,0,5.187-.85,3.955,3.955,0,0,0,2.635-4.487c-.167-1.561-1.267-2.5-3.383-2.915-2.134-.422-4.317-.234-6.453-.533a4.55,4.55,0,0,0-3.858,1.419,3.8,3.8,0,0,0,1.211,6.652,12.215,12.215,0,0,0,4.662.714" transform="translate(-182.992 -436.257)" fill="#fff"></path>
      <path id="Path_45" d="M671.729,511.929a18.945,18.945,0,0,1-2.194,1.552,11.6,11.6,0,0,1-16.1-5.637,20.358,20.358,0,0,1-.039-16.255c3.3-7.7,11.043-9.622,17.469-7.409.779.268.885.154.879-.609-.031-3.592,0-7.185-.027-10.777,0-.623.147-.852.806-.832,1.522.046,3.047.052,4.568,0,.7-.025.863.211.858.88-.029,4.11-.014,8.219-.014,12.329q0,14.065.018,28.129c0,.765-.207.983-.962.953-1.46-.058-2.925-.062-4.384,0-.754.032-.961-.238-.884-.928a13.921,13.921,0,0,0,.008-1.4m0-13.34v-7.115c0-2.382,0-2.382-2.34-2.947-5.064-1.221-9.045,1.031-10.356,5.912a19.244,19.244,0,0,0-.333,7.778,10.837,10.837,0,0,0,1.671,4.674c2.672,3.929,8.529,3.128,11.034,1.076a1.09,1.09,0,0,0,.325-.986q0-4.2,0-8.393" transform="translate(-532.457 -385.59)" fill="#fff"></path>
      <path id="Path_46" d="M484.092,70.363c5.338-17.41,5.208-34.555-1.386-51.6a1.661,1.661,0,0,1,.959.325,37.77,37.77,0,0,1,20.911,35.948c-.024.5-.1.8-.712.934-8.111,1.824-14.191,6.545-18.846,13.283-.262.379-.408.875-.927,1.113" transform="translate(-394.371 -15.321)" fill="#fff"></path>
      <path id="Path_47" d="M918.04,549.082a19.347,19.347,0,0,1-1.5,8.345c-2.556,5.806-7.6,8.207-13.354,7.9a12.507,12.507,0,0,1-9.536-4.47,15.2,15.2,0,0,1-3.145-7.668,20.208,20.208,0,0,1,1.309-11.355c2.274-5.081,6.254-7.675,11.814-7.861a13.526,13.526,0,0,1,9.257,2.7c2.98,2.377,4.306,5.651,4.914,9.293a21.8,21.8,0,0,1,.24,3.113m-21.259.568a17.939,17.939,0,0,0,.742,5.761,6.6,6.6,0,0,0,4.264,4.747c4.1,1.325,7.805-.539,9.046-4.7a20.151,20.151,0,0,0-.01-11.6,6.542,6.542,0,0,0-6.717-5.094c-3.287.01-5.541,1.757-6.584,5.124a18.493,18.493,0,0,0-.741,5.761" transform="translate(-727.322 -436.248)" fill="#fff"></path>
      <path id="Path_48" d="M77.334,536.856a25.385,25.385,0,0,1,3.226-1.8,13.317,13.317,0,0,1,8.847-.591c3.538.965,5.336,3.51,6.011,6.976a18.987,18.987,0,0,1,.316,3.631c0,6.3-.012,12.6.02,18.9,0,.775-.225.973-.97.946-1.521-.056-3.046-.049-4.567,0-.662.021-.8-.209-.8-.83.022-6.026.012-12.052.014-18.079a13.148,13.148,0,0,0-.349-3.436,4.387,4.387,0,0,0-3.924-3.43,10.563,10.563,0,0,0-7.224,1.682c-.5.307-.45.732-.45,1.186,0,7.274-.016,14.548.024,21.822,0,.891-.224,1.138-1.1,1.09-1.427-.078-2.863-.064-4.292,0-.764.032-.957-.2-.954-.961q.04-13.833.017-27.666a10.549,10.549,0,0,0-.007-1.095c-.06-.576.19-.729.734-.72,1.553.028,3.107.044,4.658-.006.676-.022.842.23.783.838-.044.451-.009.91-.009,1.552" transform="translate(-58.136 -436.253)" fill="#fff"></path>
      <path id="Path_49" d="M516.9,558.634c0,1.583,0,3.013,0,4.443,0,.334-.065.577-.429.7-5.3,1.814-10.635,2.391-15.96.187a11.579,11.579,0,0,1-6.741-7.5,20.635,20.635,0,0,1,.152-13.7c3.263-8.955,12.243-10.111,17.936-7.864a10.081,10.081,0,0,1,5.83,6.305,19.228,19.228,0,0,1,1.009,8c-.048.708-.259.95-1.022.945-5.789-.038-11.577-.021-17.366-.021-1.178,0-1.165,0-1.122,1.206a13.382,13.382,0,0,0,.477,3.058,7.677,7.677,0,0,0,7.707,6.047,20.575,20.575,0,0,0,8.917-1.576c.162-.069.33-.124.61-.229m-10.928-12.608c1.948,0,3.9-.009,5.844.007.442,0,.668-.08.643-.6-.118-2.43-.812-4.609-3.028-5.893a6.34,6.34,0,0,0-6.533.173c-2.142,1.186-2.968,3.269-3.423,5.554-.125.629.035.779.652.769,1.948-.033,3.9-.012,5.844-.013" transform="translate(-402.519 -436.205)" fill="#fff"></path>
      <path id="Path_50" d="M1072.051,536.7a16.864,16.864,0,0,1,4.139-2.174,13.435,13.435,0,0,1,8.348-.1,8.039,8.039,0,0,1,5.621,7.757c.13,7.245.027,14.493.057,21.74,0,.721-.229.854-.88.833-1.43-.047-2.865-.057-4.294,0-.731.03-.906-.2-.9-.91q.042-8.906.008-17.813a18.625,18.625,0,0,0-.167-2.639c-.486-3.331-2.427-4.774-6.383-4.518a11.028,11.028,0,0,0-4.713,1.6,1.373,1.373,0,0,0-.766,1.384c.023,7.277,0,14.555.031,21.832,0,.792-.139,1.118-1.025,1.07-1.519-.083-3.046-.042-4.568-.012-.514.01-.674-.141-.674-.664q.021-14.57,0-29.14c0-.434.068-.672.589-.663q2.467.04,4.935,0c.555-.009.674.241.649.72-.026.506-.006,1.015-.006,1.694" transform="translate(-870.825 -436.12)" fill="#fff"></path>
      <path id="Path_51" d="M269.959,98.758c-1.5-11.511-6.783-21.071-14.847-29.17a49.644,49.644,0,0,0-29.237-14.807,33.877,33.877,0,0,1,6.376-7.8c2.593-2.313,1.481-2.192,4.63-.736,16.257,7.513,26.582,20.078,31.374,37.249a48.2,48.2,0,0,1,1.706,13.63c-.007.546,0,1.093,0,1.639" transform="translate(-184.539 -36.917)" fill="#fff"></path>
      <path id="Path_52" d="M405.831,537.68c.781-.659,1.394-1.243,2.072-1.739a9.227,9.227,0,0,1,7.534-1.589c.343.067.631.132.625.6-.021,1.7-.008,3.4-.008,5.16a13.684,13.684,0,0,0-5.488-.172,10.177,10.177,0,0,0-3.894,1.711,1.628,1.628,0,0,0-.769,1.511c.028,6.97.006,13.941.033,20.911,0,.731-.138,1.016-.936.98-1.489-.067-2.985-.054-4.475,0-.7.024-.925-.154-.919-.894.038-4.2.018-8.4.018-12.6,0-5.357.012-10.714-.016-16.071,0-.671.154-.9.851-.879,1.552.05,3.106.037,4.659,0,.554-.012.762.14.724.716-.048.723-.012,1.452-.012,2.353" transform="translate(-326.479 -436.393)" fill="#fff"></path>
      <path id="Path_53" d="M469.856,276.032c-.067-9.886,13.391-25.1,23.2-26.289-.579,9.477-12.646,23.181-23.2,26.289" transform="translate(-383.873 -204.04)" fill="#fff"></path>
      <path id="Path_54" d="M836.13,551.712c0,4.75-.014,9.5.015,14.249,0,.69-.136.951-.887.919-1.521-.064-3.047-.049-4.568-.005-.635.018-.828-.163-.821-.809.031-3.227.014-6.455.014-9.682,0-6.333.012-12.666-.016-19,0-.74.164-1.011.949-.977,1.49.064,2.986.057,4.477,0,.7-.026.858.2.854.871-.03,4.81-.016,9.621-.016,14.432" transform="translate(-678.002 -438.244)" fill="#fff"></path>
      <path id="Path_55" d="M829.307,473.279a3.912,3.912,0,0,1-3.96-3.919,3.963,3.963,0,0,1,4-3.9,4.006,4.006,0,0,1,3.978,3.939,3.956,3.956,0,0,1-4.016,3.881" transform="translate(-674.309 -380.28)" fill="#fff"></path>
    </g>
  </symbol>
</svg>