<svg width="0" height="0" class="hidden">
  <symbol id="montaforte" xmlns="http://www.w3.org/2000/svg" xmlns:xlink="http://www.w3.org/1999/xlink" viewBox="0 0 237.547 134.408">
    <defs>
      <clipPath id="clip-path">
        <rect id="Rectangle_53" width="237.546" height="134.408" fill="#fff"></rect>
      </clipPath>
    </defs>
    <g id="Group_33" clip-path="url(#clip-path)">
      <path id="Path_56" d="M26.715,483.116a52.654,52.654,0,0,0-1.166-6.8c-.911-4.886-1.877-9.762-2.826-14.641-.05-.255-.15-.5-.294-.968l-7.972,21.643L6.438,460.642c-1.653,7.7-2.818,15.141-4.536,22.474a5.127,5.127,0,0,0-.926.009c-.8.149-1.1-.143-.929-.936A28.29,28.29,0,0,0,1.409,476.4c1.454-6.985,2.84-13.985,4.256-20.978.059-.292.156-.576.3-1.091l8.491,23.018,8.522-23.112c.487,2.357.91,4.386,1.323,6.416q2.236,11,4.464,22a3.845,3.845,0,0,1,.039.461Z" transform="translate(0 -348.754)" fill="#fff"></path>
      <path id="Path_57" d="M264.828,482.918V454.377l.247-.1,19.714,23.13c.033-.705.068-1.108.068-1.511q-.006-10.362-.032-20.724c0-.747.018-1.194,1.009-1.195s1.014.434,1.013,1.186c-.018,9.107-.012,18.215-.012,27.719L267.163,459.8c-.324.159-.238.376-.239.548q-.037,11-.062,22c0,.19.034.381.052.572Z" transform="translate(-203.328 -348.556)" fill="#fff"></path>
      <path id="Path_58" d="M766.113,482.976c.02-2.2.055-4.4.057-6.595.007-7.066.016-14.132-.015-21.2,0-.83.156-1.153,1.07-1.124,2.663.083,5.339-.065,7.993.118a8.924,8.924,0,0,1,8.126,7.377,9.444,9.444,0,0,1-4.6,10.046c-.335.182-.681.346-1.033.524.063.1.087.179.133.194,4.6,1.481,5.636,5.182,5.866,9.386.023.423.02.848.03,1.272H781.65a10.172,10.172,0,0,0-.151-3.1c-.793-4.431-3.167-6.422-7.64-6.424-1.584,0-3.168.024-4.751-.012-.644-.014-.968.072-.953.856.057,2.893.037,5.788.045,8.682Zm2.061-19.47c0,2.2.032,4.4-.018,6.6-.017.773.229.991.98.961,1.389-.056,2.782.005,4.172-.021a8.844,8.844,0,0,0,5.485-1.883,7.4,7.4,0,0,0,2.4-8.133,7.159,7.159,0,0,0-6.845-4.945c-1.777-.019-3.555.022-5.331-.019-.651-.015-.865.171-.853.838.039,2.2.014,4.4.014,6.6" transform="translate(-588.203 -348.614)" fill="#fff"></path>
      <path id="Path_59" d="M639.12,483.164c-.233-.4-.676-.319-1.022-.409a14.592,14.592,0,0,1,.581-28.176c7.137-1.516,14.318,3.368,15.918,10.919,1.883,8.89-4.09,16.454-11.277,17.479-.093.013-.172.123-.257.188Zm13.745-14.436a12.864,12.864,0,0,0-.312-2.986c-1.154-4.7-3.894-7.97-8.709-9.059a10.8,10.8,0,0,0-11.544,4.072,12.883,12.883,0,0,0-2.448,10.277,11.525,11.525,0,0,0,13.89,9.8c5.374-1.093,9.127-6.072,9.123-12.1" transform="translate(-481.848 -348.803)" fill="#fff"></path>
      <path id="Path_60" d="M147.576,483.213c-.3-.385-.771-.3-1.158-.4-6.408-1.68-10.586-7.568-10.442-14.753a14.252,14.252,0,0,1,11.084-13.424c6.941-1.452,13.9,3.13,15.766,10.383,2.168,8.447-3.258,16.762-11.053,18-.093.015-.17.125-.254.191Zm-9.533-14.289a11.7,11.7,0,0,0,.27,2.736,11.536,11.536,0,0,0,10.209,9.45,11.351,11.351,0,0,0,11.945-7.778,13.94,13.94,0,0,0,.557-6.957,11.538,11.538,0,0,0-14.43-9.559c-5.122,1.35-8.552,6.152-8.551,12.108" transform="translate(-104.396 -348.851)" fill="#fff"></path>
      <path id="Path_61" d="M462.91,483.085l-9.572-23.639c-.809,1.972-1.518,3.681-2.214,5.4q-3.481,8.577-6.946,17.16c-.137.341-.425.662-.284,1.083h-2.319L453.328,454.2c.9,2.226,1.721,4.253,2.544,6.279q4.392,10.813,8.783,21.627c.13.32.229.653.343.98Z" transform="translate(-339.031 -348.723)" fill="#fff"></path>
      <path id="Path_62" d="M554.264,483.007q-.015-14.013-.046-28.026c0-.755.281-.883.948-.879q6.375.037,12.75,0c.768-.006.977.227.975.983,0,.777-.174,1.065-1.019,1.054-3.554-.047-7.109-.007-10.663-.032-.687,0-1.035.089-1.021.922q.076,4.574,0,9.149c-.012.8.3.954,1.009.946,2.7-.031,5.41.018,8.113-.031.824-.015,1.026.247,1.036,1.043.011.831-.254,1.03-1.051,1.016-2.7-.048-5.409-.016-8.113-.02-.51,0-.993-.085-.988.719.027,4.285.014,8.57.023,12.855,0,.1.086.2.132.3Z" transform="translate(-425.516 -348.645)" fill="#fff"></path>
      <path id="Path_63" d="M380.7,482.982c-.02-8.534-.06-17.068-.033-25.6,0-1.063-.279-1.353-1.332-1.319-2.471.08-4.947-.007-7.419.044-.787.017-.889-.32-.867-.963.021-.614-.039-1.082.877-1.077q9.623.06,19.246,0c.822,0,.95.31.939,1.013-.01.671-.063,1.048-.919,1.028-2.549-.059-5.1-.009-7.652-.022-.555,0-.931.009-.929.766.024,8.573.016,17.145.024,25.718a1.3,1.3,0,0,0,.153.411Z" transform="translate(-284.881 -348.62)" fill="#fff"></path>
      <path id="Path_64" d="M864.558,482.989c.278-.3.148-.663.148-.994-.01-8.256-.042-16.512-.027-24.767,0-.889-.206-1.183-1.138-1.158-2.508.068-5.019-.01-7.528.043-.816.017-.951-.3-.943-1.012.008-.686.095-1.031.93-1.027q9.613.052,19.227,0c.8,0,.943.275.957,1,.016.8-.2,1.056-1.029,1.039-2.47-.052-4.943.026-7.412-.035-.889-.022-1.084.254-1.08,1.1.032,8.14.02,16.28.017,24.42,0,.462-.023.925-.035,1.387Z" transform="translate(-656.501 -348.627)" fill="#fff"></path>
      <path id="Path_65" d="M957.613,526.541c-.019-4.979-.032-9.958-.068-14.936,0-.585.153-.809.777-.805,3.863.024,7.726.019,11.589.009,1.386,0,.6,1.046.772,1.6.194.644-.087.943-.844.932-3.013-.044-6.026.007-9.039-.035-.782-.011-1.068.169-1.054,1.01q.076,4.573,0,9.148c-.012.82.242,1.034,1.042,1.025,3.476-.041,6.955.045,10.429-.05,1.246-.034,1.655.352,1.459,1.522a3.173,3.173,0,0,0,.007.577Z" transform="translate(-735.179 -392.179)" fill="#fff"></path>
      <path id="Path_66" d="M250.327,78.241q7.693-9.951,15.343-19.848Q288.011,29.464,310.325.515c.7-.914.922-.443,1.352.114q20.42,26.46,40.85,52.912,7.825,10.132,15.66,20.256a42.8,42.8,0,0,1,3.212,4.586L356.411,61.828q-16.487-18.21-32.974-36.42c-3.888-4.3-7.789-8.579-11.641-12.907-.645-.725-.961-.758-1.633-.014Q288.968,35.97,267.724,59.408q-8.2,9.064-16.408,18.125c-.259.285-.439.744-.99.708" transform="translate(-192.195 0.001)" fill="#fff"></path>
      <path id="Path_67" d="M339.447,356.429c-2.713-.568-5.429-1.125-8.139-1.706Q301.2,348.268,271.1,341.8c-1.735-.372-3.478-.715-5.2-1.144a8.093,8.093,0,0,0-3.763,0q-35.871,7.727-71.752,15.412a2.013,2.013,0,0,1-1.206.019,3.353,3.353,0,0,1,1.459-.574q36.018-11.04,72.038-22.071a4.351,4.351,0,0,1,2.7,0q36.29,11.139,72.592,22.239c.506.155,1.008.325,1.511.488q-.012.128-.024.255" transform="translate(-145.244 -255.849)" fill="#fff"></path>
      <path id="Path_68" d="M253.82,148.2c-.146-.515.33-.692.573-.948q15.3-16.143,30.617-32.262Q298.772,100.493,312.533,86c1.3-1.371.914-1.354,2.186-.015q26.294,27.679,52.573,55.372,2.626,2.766,5.254,5.531a1.016,1.016,0,0,1,.433.873c-.847-.736-1.6-1.366-2.332-2.03q-28.067-25.625-56.108-51.279c-.872-.8-1.277-.459-1.943.15q-26.561,24.268-53.151,48.5c-1.867,1.7-3.759,3.376-5.639,5.063Z" transform="translate(-194.856 -65.242)" fill="#fff"></path>
      <path id="Path_69" d="M257.261,207.809q8.523-6.974,16.969-13.886,20.612-16.886,41.208-33.792a1.1,1.1,0,0,1,1.724.007q28.608,23.487,57.251,46.931c.257.211.5.441.808.715-.6.1-.866-.3-1.191-.523q-28.435-19.672-56.846-39.377a1.309,1.309,0,0,0-1.791.014q-28.406,19.713-56.846,39.377c-.362.251-.668.676-1.286.534" transform="translate(-197.519 -122.629)" fill="#fff"></path>
      <path id="Path_70" d="M373,268.5q-3.251-1.58-6.5-3.16-25.328-12.384-50.644-24.791a2.357,2.357,0,0,0-2.351.014q-28.483,13.969-57,27.875c-.4.2-.773.534-1.338.4q20.927-12.5,41.776-24.952c5.6-3.346,11.207-6.683,16.79-10.059a1.557,1.557,0,0,1,1.872-.029q26.774,16.041,53.555,32.069A15.434,15.434,0,0,1,373,268.5" transform="translate(-195.912 -179.275)" fill="#fff"></path>
      <path id="Path_71" d="M374.625,322.154q-4.491-1.49-8.982-2.98-24.429-8.149-48.853-16.315a3.126,3.126,0,0,0-2.121.013q-28.319,9.471-56.651,18.9c-.452.15-.9.45-1.473.217q13.568-5.625,27.061-11.218,15.615-6.469,31.228-12.942a2.079,2.079,0,0,1,1.751-.038q28.762,11.94,57.538,23.842c.2.085.4.184.6.276l-.1.244" transform="translate(-196.97 -228.502)" fill="#fff"></path>
      <path id="Path_72" d="M965.154,454.047c2.162,0,4.324.03,6.485-.016.765-.016,1.1.128,1.074.993-.02.77-.167,1.058-1.014,1.05q-6.6-.065-13.2,0c-.816.008-.927-.289-.942-.99-.016-.765.133-1.084,1-1.059,2.2.065,4.4.022,6.6.022" transform="translate(-735.187 -348.588)" fill="#fff"></path>
      <path id="Path_73" d="M765.32,385.228c-.114-.066-.286-.216-.333-.184-.217.148.061.112.1.172s.126.06.193.088l.044-.075" transform="translate(-587.276 -295.624)" fill="#fff"></path>
      <path id="Path_74" d="M252.77,356.829l-.231.181-.1-.151c.113-.056.226-.217.34,0l-.013-.029" transform="translate(-193.82 -273.902)" fill="#fff"></path>
    </g>
  </symbol>
</svg>