<svg width="0" height="0" class="hidden">
  <symbol xmlns="http://www.w3.org/2000/svg" viewBox="0 0 290.97 103.68" id="unimed">
    <g id="unimed" transform="translate(0 0)">
      <g id="g36" transform="translate(0 0)">
        <path id="path38" d="M-49.14-263.3H-295.293A22.441,22.441,0,0,0-317.7-240.864v58.839a22.435,22.435,0,0,0,22.407,22.407h268.56v-81.275A22.4,22.4,0,0,0-49.14-263.3m0,3.376a19.02,19.02,0,0,1,19.031,19.031v77.9H-295.293a19.038,19.038,0,0,1-19.031-19.031v-58.839A19.02,19.02,0,0,1-295.293-259.9H-49.14" transform="translate(317.7 263.3)" fill="#fff"></path>
      </g>
      <g id="g40" transform="translate(234.13 36.675)">
        <path id="path42" d="M513.6-108.8h10.127l15.219,20.224H528.819l7.566,10.127H523.727l-7.566-10.127h5.034L513.629-98.7h7.566Z" transform="translate(-513.6 108.8)" fill="#fff" fill-rule="evenodd"></path>
      </g>
      <g id="g44" transform="translate(208.784 36.675)">
        <path id="path46" d="M451.846-108.8H441.719L426.5-88.576h10.127l-7.566,10.127h12.658l7.566-10.127h-5.092l7.653-10.1H444.28Z" transform="translate(-426.5 108.8)" fill="#fff" fill-rule="evenodd"></path>
      </g>
      <g id="g48" transform="translate(31.616 38.713)">
        <path id="path50" d="M-22.8-100.171H-33.6v17.2c0,8.322,6.2,11.553,14.055,11.553,8.526,0,14.171-3.026,14.171-12.193V-100.2H-15.995v16.79c0,2.764-.611,4.685-3.434,4.685-2.619,0-3.376-1.979-3.376-4.685v-16.761Z" transform="translate(33.6 100.2)" fill="#fff" fill-rule="evenodd"></path>
      </g>
      <g id="g52" transform="translate(62.488 45.422)">
        <path id="path54" d="M56.9-33.579H67.085V-45.772c0-1.164,0-2.823,1.862-2.823,1.8,0,1.8,1.659,1.8,2.823v12.193H80.936V-48.245c0-4.132-2.008-6.955-7.449-6.955-2.881,0-5.645,1.164-6.868,4.132h-.087v-3.637H56.9v21.126Z" transform="translate(-56.9 55.2)" fill="#fff" fill-rule="evenodd"></path>
      </g>
      <path id="path56" d="M319.585,126.1H309.4v7.013h10.185ZM309.4,156.451h10.185V135.325H309.4Z" transform="translate(-219.368 -89.416)" fill="#fff" fill-rule="evenodd"></path>
      <g id="g58" transform="translate(103.567 45.422)">
        <path id="path60" d="M166.2-33.579h10.185V-45.772c0-1.164,0-2.823,1.862-2.823,1.717,0,1.717,1.659,1.717,2.823v12.193h10.243V-45.772c0-1.164,0-2.823,1.717-2.823,1.862,0,1.862,1.659,1.862,2.823v12.193h10.185V-46.237c0-4.132,0-8.963-7.42-8.963-2.561,0-6.053,1.164-6.751,3.637h-.058c-.844-2.561-3.783-3.637-6.606-3.637-3.23,0-5.995,1.164-7.217,4.132h-.058v-3.637h-9.632v21.126Z" transform="translate(-166.2 55.2)" fill="#fff" fill-rule="evenodd"></path>
      </g>
      <g id="g62" transform="translate(143.345 45.422)">
        <path id="path64" d="M277.453-48v-1.251c0-7.159-2.881-12.251-11.087-12.251-8.526,0-13.066,3.579-13.066,10.65,0,7.3,4.54,11.436,13.066,11.436a32.03,32.03,0,0,0,9.486-1.251v-5.413a15.919,15.919,0,0,1-6.867,1.309c-3.026,0-5.442-.611-5.645-3.23Zm-14.113-4.481c-.146-1.659.349-4.132,2.764-4.132,2.27,0,2.532,2.532,2.532,4.132Z" transform="translate(-253.3 61.5)" fill="#fff" fill-rule="evenodd"></path>
      </g>
      <g id="g66" transform="translate(169.665 36.685)">
        <path id="path68" d="M345.585-73.829c0,1.979-.349,4.336-2.473,4.336-2.27,0-2.619-2.328-2.619-4.54s.349-4.394,2.473-4.394c2.3,0,2.619,2.212,2.619,4.6m9.923,10.68V-93.5H345.323v11.96h-.087a7.166,7.166,0,0,0-6.4-3.23c-6.344,0-8.934,5.005-8.934,10.738,0,6.053,2.473,11.349,9.283,11.349,3.288,0,5.354-1.164,6.751-4.336h.058v3.87h9.516Z" transform="translate(-329.9 93.5)" fill="#fff" fill-rule="evenodd"></path>
      </g>
      <path id="path70" d="M695.988,108.7H694.3v40.478h1.688Z" transform="translate(-492.264 -77.079)" fill="#fff" fill-rule="evenodd"></path>
    </g>
  </symbol>
</svg>